<mxfile host="Electron" modified="2024-02-15T08:29:08.176Z" agent="Mozilla/5.0 (Windows NT 10.0; Win64; x64) AppleWebKit/537.36 (KHTML, like Gecko) draw.io/21.2.8 Chrome/112.0.5615.165 Electron/24.2.0 Safari/537.36" etag="kpQd0EbFaAfmYReGf9-J" version="21.2.8" type="device">
  <diagram name="Page-1" id="2XWkQP5S-hDbL94sL5Vg">
    <mxGraphModel dx="2058" dy="1180" grid="1" gridSize="10" guides="1" tooltips="1" connect="1" arrows="1" fold="1" page="1" pageScale="1" pageWidth="3300" pageHeight="4681" background="#999999" math="0" shadow="0">
      <root>
        <mxCell id="0" />
        <mxCell id="1" parent="0" />
        <mxCell id="APLwThIm-aDqV8bCMrbt-1" value="GroupBox, RadioButton and CheckBox" style="rounded=0;whiteSpace=wrap;html=1;fontSize=25;fillColor=#dae8fc;strokeColor=#6c8ebf;" parent="1" vertex="1">
          <mxGeometry x="1298" y="140" width="650" height="60" as="geometry" />
        </mxCell>
        <mxCell id="_IFOvd97RrzRt4TlHDTM-1" value="" style="shape=image;verticalLabelPosition=bottom;labelBackgroundColor=default;verticalAlign=top;aspect=fixed;imageAspect=0;image=data:image/png,iVBORw0KGgoAAAANSUhEUgAAApQAAAKRCAYAAADqAjmPAAAAAXNSR0IArs4c6QAAAARnQU1BAACxjwv8YQUAAAAJcEhZcwAADsMAAA7DAcdvqGQAAK7vSURBVHhe7N0HYBNlAwbgN0knLbRllLbslr1lKyJT2RsBAVm/iICCIooMZcsQFARkCQKCDEVAUPaeMmWvUnaB0pZu2qbN999dLm26Q0OB0veB5O6++27mknt7I9FUrFRZIBkhUhTJhUilVJJ6qbVSmwWilxo3WqKXl0ajthBlD9Ztsk83sFI7lQlq0pmJxF7GliSB0vIgKZVx3/lsZHJFcvXTi8OtL31pfwATkfVeyDvsFfuDxLg4KZfJWJxKeRrLbx4qlUCZZUHSitTJXdbL6AW8KtloQ+A2S/TySn13+JJ6ITObrdZQjmDVK/IUATi1cGksSjmO1IKlqUhToWKllPvBFGEylSCZauDM7l7AEmVykq/eus/pstEryo0v66T8rKZnhiv3ZfNCXpFMT/TV2n6UpUkWDpMHy9TqmCQPlnJn0kCZSkhMcfTyqYKkFXseKwbNrBcwyRcgZ6zYnPFaEtHLLPVdcRZ77hN9IUuZrWR6DVm1ai0bWKmViWCZ6pHKhECZLCimHyTVNqmRrFY2l8mlsWIlvFrrLyu8gDWUQ14Ubnv0oqTcFb3EXsjMZqs19NxZtXYyPfCr85ooS5L4pDB2Jl1G82CZev9k3UqgTBYWU2ZJU4HalBrJqqTBslqpyuSgVkzxBXm+C5r91k9OkY1eGW5EL5+kn+uUKq6k9LyQtZPpiWav1/LlW0zjiJXnxCdFaqey0+9v1q98hYpmu4dkYTL5UUnjf1Xy7peFFXOUyUFfvnWQnue/fqyRvdbti8A1RDlJ0p0ZpZTpNfT8B8xWkuWop/TyrSPzoJjYat5tbJeZ15WlFSrNAmXSMJn8qGRip3nIlCXtSiKdXhmxYtDMM18BT+GFzOsLkcklzSErKOdsB0RkiaS73eck0xN9IXP73L2Y1ZO5gbNukok9lTZTIDR2KO0yS/vJ5FCpBkqzMJkkMCq91O6kgTNld2oyrJC2TA5qxRStkFOWM6fIRms3m20I3G6zRuLH+ivuhSxojlm7z12m16xVL8nzfz1fxuVU+iYJhMqzWp7wlKSeqY5JiiOV5cpXSPyMTxYmzUOmja0tnJxywc7WDnb2dtDpdFm6dzCfE0pFtlo9z39mufUQ0YuWdHf7vLyYqWZKNprVF0GNd1lDGnV8fDxiYmIQG6tHVFQU4vR6qdw4TfPwaGw1tssSTnEbO5R2WWKgTCdM5s6dGy6uLggKicCT6FhESxPX6+PVCkTPUxZFxcT3REpPM8n0xkPPQBa9/tlGTl9+InpWbG1s4GBvC0d7O+R3c0FISCjCw8ISQuLThkpjoEwjTMrXUebPn18q0eJ+4GMpxTJE0ouWRTvUxPdJUpmZXFrjomcgpweqnL78RJQV7Gxt4Jk/L2x0GgQEPFJLTVlRDYzKk9puXq6WaVMPk3JTIE/u3FKbFrf8Axkm6SVh3HCN5Pbkj/Q8TV1JZvfd8nDc72cRC187IiKyWKw+DrfuByAu3nhW2nhjdmImTHg2FiQtlzukh1bpkkkdpgpyUz4UKp/mvh8YovQmenlkJlSkVj+dcRjfJ9Z5FuOgNDBUEhE9a/cDg+Hq4qJkQPNMmNoOzVhuJLdqjd3SAEozsYKTs5NyzWRsbJyxgChbeMrgaCJv9+aPJJ42vMj10xkm+bRSTI8s87SvCxERpUc+UhkYEopcTrmUblMmTAiXiR2KxK+YlE95y0wVzYaU7+aWb8Ahyn5MQSODYKewJJQkvmHSl8r0kg9q6aiIUmXJ9kpElHlPYmKVDGgKjqbT36b9l9IwC5KmHonXUJr6qd3yVwPJd3Mn9iDKTjKz4zUFQvNHeiysK7+FTA96xjJY96+knLjMRPS8RMfoYW9vb9xlmYKj1DDvVksVpiqaMmXLyYcm1Z5Kq9IsXqw4LvjeUUrTkie3E2xtdGqX5fRx8QgLj1K7iF5m5m8bc0+7Q5fHk3wYs3EzHzwDab1Wr7KcuMxElNUq+BTDzVs3pTZNwh3dKZpKw7jzkhuaMmXLmp3pNrbIzeLFi+Gi712lOy0/fDcZPiVLql2pM91Ofu9BYEKKjQwLwtAvRkCrffowSvT8Jd9pG7dp66UTBp7VJHKcdNbpKymnLS8RPQ/lfYri5s1bieHRLDgm7U7cWWkTPo/MwmT65IGND1eXPKhQtlS6j/JlSiqPt+vXwTsNjI8C+fNZMB2il0XiNm98PCvPclxERJSRCd+Mxu2rF3Dv+uVUH3I/uc7L5vCurXijdi21KyW536GdW9SuZ8V01tosG5qiW2IPY1OiKVOmrLFTepabpoFSP0KZdAe4fPFPKFzYBxsOXINGK4wPnfwwoEWVkvAo6IKIiEilrpOTE9YduqG0l8gdhR69+0Gns1G601K7ZnX8uWa52mXUoUtP/Hv8pNqVtTat+w3VXquidgHfjJ+MxUtXqF1Ez0riGzIBs6YVUlmfr6yctKxE1pMD49st2+L+wwC1JKm8bq7Yv2MLipauoJa8HOTAOGfmd/j40y9w+N9jaqlRev0yy3iE0nTK27hDkptKWypNWeL3UGaCPAqNRocboRG4GR6OW1FhuBMTirv6EOj1BimcSg/1n4nOzrIvSJ84dpQSJgt5V0h4/LL8N1SsUM5Y4TmRpylPWw6y478ZoZYSPUvKO8nYSs8A1yURpU6n0ylhMiwsLNXHzVu3lTovGzkoyoFRDo7mRyqzIkxmloWBMvUdXrzBGBQL5LOHxi4OoXFheBQdhIdPjD/bo0n2x7ODWzRy5bfsZpw+PbspQc7c6LGTXtgRwud1VJRIIb93zB9ERJSjJQ+VL1OYlGUQKNM/cmLaz116eBc3Qu4jJO4xniAcsZoIpVyog6oHReHkGoFczsZ+6ZGPTp46fcbYkYaDu//BLwvn4J7fBaW+7PzJQ0q3/JD7m8jt/+vdQ+1K2i23y8ObhpPHkZrk8ySfjjcNIz/keZHJ9czHYZpPooyl/V6jp5VT1iW3GaKcxDxUvkxhUmb1KW/ZEylA2jrqYeugh419LGylh0JKnKYwKStboAhKunqrXekLDApW25AQHOWHKTzKSpX0Vo5iykcu5eB2/OTphNPjjx+HKNdAWqJd6xYJw4WEhiYJgPKRUnm6cnPilBlqKZTT8fI1labhalZ/TZk3eV7k+ZDHIXfL89Hnw4+VYYgyxoBAT0veZrjd0POX2k0tqT0oZ7AqUJooQVJ62NrLD7NAKX3GmZ+tK+nmozwskT9fXrVNCnVSIJNDW/KjlvL1jSYlihdLEtzk8CeXWeKH2fPUNuM45aBqYrqGUn4snv+jcmRTfty4eSvJ6fcNm/5BlUrGU/TyfMgBUw6qrTt2U8qILMeA8GzktPXIbYaer0I+ZS160LNjfprb/PT3yyDZb3mr8U++09s8CWbAGCaNQdJObtoZA6XxjnHTiARi9Xo8eRKtdqdt099bk9xdnVny0cbMkI8qpkYOkemFVPOjqkTPlOmtZP6WIgsxaBFR9pf8msnk11Q+Uwn7GulJ/fYfud1YlHirtakps+4IpfQ5HRPzBLXz+6CGWylUy1MaVZ3KobJjBaXcWMX4YS7Pj8FgQLz0yIh8A4x8NDKt6xlTI4c981PVo7/6HNd8/ZR2OSC++UYdpV2+9jF5KJSPJJp89skAnDl3Qe1KSh7OdGRSbje/LlMex8HDR5V2eT7k096mU99ET0d+i5q/Tcl6DJVEBMTHxytfDZQWj4IFlTovm7RuwMnSUPmUNKXLlJX2XFLaVPZfalN6Kl68OC5evycXpmnJwrlo3KAuoiIjEj6uNcqv38jjMcDGxg5arRZx0osjv0ByoJSdOH3Oou+hlMPYO00aql3GYFixel2lXbnZZflvSU47ywHUTd1Q5EBqOt1s/n2W8jiU6yTVYeXxyGWmI6LmwyX/Hkp5GPkaSVny78g09ZPnWT7dbZpPeZ7kYMnrKMlyFoRJ5qNMyAkhPScsI1HmyV9a3qvHe2l+NZCcVZatWIWvx09US148+fsfD+74B1+MGpPmDThymJz+7Xi80biZWmKd8t7q91BK+xrlwKD8nZPKfkc9TKh0G3dECU1rAuWnnwzAa1Urq10pyWFSfsgvkPkv45w9cw7f/fAjtBkEyuchtWBK9GIlDwXGN2uSclMRZULy9fsqeZWXjSjnkkPb8/yFweceKOWFEwYpLKrdlpInLR/JNM3Ei8RASS+f5O8o0/sknXfai38rZTNP+6mVXbyqy0VEz1NmAqV1XxskjUQ+yiifun6ahzzMyxAmiV5Oyd8bckhgUCAiopfXM/naoOzszUYteHSSXkJyqOQfXURElD3k+EBJlP0wbBIR0cuFgZLopWZhcDSdFefZcSIiegEYKImyHaZG6/EILxHRs8RASfTSY/ghIqKXGwMlUbaQXqiU+zF0Pr1Xcb1xOyCiF4OBkuhVZH49Jc+OZ4AhjIjIWgyURNlGWsGHqZGIiF4s4y/lyL94I/9T9ktyG1CieHHs2LFdqUREREREOcPbb7+DGzdvGg9jqL+KY2o3NlL+cg6PUBIRERGRVRgoiYiIiMgqDJREREREZBUGSiKiV1BsWAACQmOe++1aL2q6RPRi8aYcenXFXMDqqSvgW64Xhr9bFrZqcUb0j/7D5pUrsPHAZTyI0CBP0Uqo364b3mtaEXlt1EovRCgOL5iKTTeNu2qtYwH4VGuCts0qI98Lna+XQMxpTGzQClta/YXdo6rDXi3OucKx65Na+Ch6Oo4vaglXtTRR0m1Jo3NAvpJvoGW7RijrqlPKMifZdDP1unA7J3rReFMOkZmok0sx8fu5+OHbX3HqiVqYrhj4ruiFSt718OnaO8hToS4a1JNCZNAefDfga/wTqFZ7YQwI/vc3LNt+Adf9fHH+4GpM6FYdpRpPwakotUpOZV8Yb3Xpg05vFmGYNFEODhg//FNK3Jb8/Pxw9cxeLB/ZFhVLNcPMc9FqnUwyn26mXpdns50/PrkEwz9fgotxaoEktTIiejYYKOkVFYYjq7cg7u0uqPVgDX49Eq6Wp+3R3x+j2UdH8fris7h2eA1+HD8CX42ejPl/HsH1s7PQIJda8YXSwLHaACxa8zs2bj+Gy4cnoOyJ+Vh4OOPle7UVwFufTsRn9d3VbsqYcVtauGYN/ti0B2eu7saIYv9i5uy9CFFrWC+zr4v123nYiVVYvO8BDGaZ2lh2P0kZET0bDJT0agrcg6Xro/BW36Ho2ygeW3/bj2C1V6qipB3pqN/h9MlSzOlcAnZqsYnOtSgK55FaDH7YOHkEJqw8iH9XjkafHoPx62W93AMh5/7AtwO7onXzVug84Fv8eTFcuXxEEXoYC0aPwS8nzHaI4cew+OtvsOiotPuO98Nf8nhXncDlXXPw2Xut0bJDP3z71zWkd1DGPq8H3Ow10GrN95DpzUsQDs3/BqOmb8Edg1IgeYS9c0bj6/mHkq6jOGmepo7C5I1+0hhVD/fgx9ET8LuyzLJonF05Ft8sPILHaaybuMDTWDt5ELq0ao5273+G2XvvwzS0RcttSR3DFawbPxJTNt8yLqdpmN+O4r+Nk9G/Qyu07j4cy8+EKdWNYnF392x82q0Vmrf9H8avO4xt80Zh5LxDaQaqdJclq7eNDJbl3r6fMLS7tG7afYDxv5/B47inTE3O5fBmtXyIDnqMGLUo3eVVZDDd5K+LIoP1kYoU23m668wXu2eNwJw9jyAij2Px6BEYNXsD/kxRtlfa8mUZzI8F6z8++CxWT+iPzq1bol3vr7DkRLqfNkSvJAZKeiXd374MOx1bo3u9cmj0Xn3EblqC7Q/UnqnQX92Cf3y90fG9GnBSy1Knx9WNi/DP+pn4fPEduBZ0hjDE4cayzqhYczC2i9fQtmsrlA/7HX2r18TArabz5ME4vGQp/g0138mH4OjSn3FQrqLR44o83nVT8MG0i/Bq3B5NS9zB/Hdro+2cK0l24hohEB8fi6jA89JObA4uVhuED99wVvtmNC/5ULtRQRybMhBjtwYpQ4TsGo8Bk/9D8XfqIK9SorLxhPvjjZi5YB/uqUVBR3/B1MnfY/Gh+2pwu4GtcxbipF0RuKW6bkKwfcxHmHnODW917YFmHucxpVk9DNkZqowv+XIXSm25LakjzY3fPwux9Wa80mUa5u+1UzF0ZSSqSjv68o9Xo1/jbvjltjznUv95bfBaixm47Pk23m1bFndnDcC4Zb9j7cmQNMJNBsuS6vI/xbYRkv62kd6yXF3QHtWafacsS6c2ZXD3h/6YfibhzwCLiEcH8cfuUJSp95q0lcgsWN4Mp5vsdclw+0yU/nae3jozQB/9BLHSbGgRj9gn0YiMikZsQplBLYuR2iyYn4zWf9AWfPxGI0y4WATNunRCQ88AnL5iHvaJcgj5ppzSpcuIUqVLi5KlpEfJUsJHejRp8rYgypYMN8TCph6i0leHRZTcHbpDfFQin2j28y1hUCqkFPJ3b+GVt51Y+UAtkDzaP19MGDdOjFMeE8WyY2FCxF8W39VxFE61J4kzMaaKf4pungVEq8U3RJxaJI1R7Py4tMhTY6L4L1bu3CR6ehYV/XeGG3vLwraJDwp7ip6bHivjnf66o3CuM0mceqL2FzHiv0m1hJP3ILFbGSxY/NXTS+jsnETu3E7CwcZWFHn7C7Fw322ppsqSeZFqn/++vvCo9rU4FnRMfFOjqGi56LpZ/UThez4W3gXfFWsD5K7HYsuA2qJR85rCp9Ma8VAqMdxaKN7xaijm+klrNrV1I2LF4+DwxPVuuC2WtHAX5b44ZHxtLFlui+pcEtNq5xP1Z183Tkudl7zvzBfXTAsWJL0GhdxEy6V3pfW0QXT3chNvz/NNXO7wQ2J4FUdRqNcmaU2nJuNlsWrb2JH2tpHusgRuED2kZXlnvvmyHBYjX8slCvXeLL1qqQkWm/oUFZ61OonevXuLHh0aiyrFC4vq/VaJ65a+dpZMN/nrYtH2acF2ntE6k9yc30Tkqz5JnEuckFo2MbHMkvnJYP1HHfpMlHJrKX65m7CmiLI9OQPKWVDOhHI2LCXlRDkrKplRepQpW06ULSc/yoty8qN8BcEjlPTKibv8B5YeLYiWLUpCHxaGCNuqeLdNQZz4dT2umg6UJKPRaqExxEFvdnBFhN3CfydP4uTxPfjt+8U4FqW+XYQNSjZtjnLqefHIcztxWP8murUsjsT7Y11Qu10juF07hJMBalEGDAY7lG7ZCpUc1ALYoezbjVDs0TmcDzAeM9Po7FC8+3Kcve6La1dOYem7IZjX+jW0+9kP8qJZNi92qDBgJgbbL8Un3QZjdcHRmNXb26x+IufXWqKR/TFsOxUKhJ/EX4dd0apfc+Q7sx1yUeC/O3C5WAs0KqoeKUq2bgBbuDrrcW3fasz6ZjB6deiNuedjEBMZBdN9EZYstyV1khPCHqUa10MJ04K5lkTFwho8DopAxMVdOBJZC11a+SQut3MlNKlbFA425ke9zGW8LFm1baS7LOelaUjL0rml+bJUQP3ahdJZFpkWdo65kTuXFuG3riGwYEeMGfsuvC187aIyMV1L10dG2/mzYun8pLf+7Us3Qf28u/FVl0+w6OBdPEl9cyR65TFQ0ismBmfXrMKpiEuY1bQ4PD09UTB/MbSafxVBR3/F2vOxar2knL3Lo2jsRRy/EqGWAAVafos/Nm7ExsUforzZ15UIKcy4FsgDU1FsRDhibHIhV7LvJbJzyQtnEY2YhLSRERs4uziZ7dikHatGCrrSFM33UULnCLcCHijsXRGN+s3C7A8L4NCyTbghhWGL58WhIjr1Kg/fHbfxWs+W8E7r61hcaqFNIzuc3HMeAf9twtF8rdCmWUs0djyCHecf4syeS/Bq9TZ81JlOvm4QdRyTmlRCoyG/4aquFJr0Hoo+dfPDRv3qCSNLltuydZOUDvaO9okfchpbONgbxxATGoInudzhnvz6hvTylwXLknXbxtMuiwY6XcYf77pS72LC3MXYcHQPJhTagAH9l+C6aZ4yWN7MTPdp1kd62/mzYvn8pL3+kb8F5h/dh4mvXcKU1mVRtNoH+M039c8ZoldZxp84RNlJ5HGsXH0DtSb/i3sP/eHvb3w8fHAEYytdw5rfTqR6k4vWpw16vB6CP2ashq/FO3kj56I+KBjpi0v+SW9XCLlxDYFuJVHSTerQ2sPB5gmCgsy+vyjiAR4k5ldpVxyLoPtB0rOJwKNL5/EwT0mUypdW0pEClUHAEBuNWClZWTQvEv2V+Rg4KQL9pjTB8c8/w+/304pleVG7eRUE796MPzeehnvbJijuWB5N33bCyb1bsPOwDg2alEnzOz7DDy7CgqsNMHf3X5g75hO837YKnEJDEScSp2fJcmdu3aTNMb878kTchF+Q+SHpYNy4FoCY+NTXhSXLktxTbRvBaW8b6XF095CW5QZ8H5kduxNBuH417WVJwcYbPaeNQMVDozFs9R3IayWj5c3MdC3dPlNKup1bu85MMj8/Seny18QHs3fB984hfO35D74a9zeSXhFK9OqTAqX6F776ZPwYkJ+NbUTZScjBZVh3/zV06VQZbrld4OJifOR2lcq6V8Gd33/F4dSul9eVQt/vR6LcoU/wdscp2H49BDEGA+L1Ebjnew+R6WQW2wqd0aeWH+YM+x6HAuOUd1H0jfUYO3EvCr3fF3Xlu8OdfVCtrAFH1myGr3wLbfwj7J69BMfMvvJPo4nH9RVTsPBMmLRDl8bh9zvGfLsP7p17oq6LWkmiiX+C4IAHuHfzEvYtGoyPF95Hta5tUEpn4bzEnMfsgdMQ1mcGRg/7FpPePInRX65DWpnSvV5rVA7ah7WHNWjQqCR0cEblhhURuHMVDsQ3QPOKCeehUyGNNCYAdx7JC62H/5aZWHgsUv6qwgSWLLel68ZSDpXbolXhk5j19a+4Ip+jFFG4snwM5v9nQJIb5pPIeFmSe1bbRnocKrVF68KnMHfcSlyOkmcmCld/G4+F6S5LSjqf3pj6hQ92jfgKGx7K40l/eTMzXYvWhyq97dySdebokgfaoFu4HyGk97FeCcnGstsJZbqnmJ+0hJ/4E3+eCVYuA9A4ecGnsDNErB7xsXexd8VKHHn4LE/SEz0f8ntBfrMb3+7J2pWG1G1qNTZ4hJJeJY+wZ9UuxNbrjlbFk2/aOpRu3wN1Qv/Br3tSP3bgUPlz/H1oMVqH/oT2Zd3h6uIKlzx5UbzJdAQ07IOWxY3H4bRaHZLsL23K4eMVv+L9J7PRvERBeHp5olDVATjx1jz8+U0dKF9fqfHGe+MGw+fgQFTKnw8FPGtiUmwDNPbUJbwJDcIRNdqXxZ4uZVDYywMelT7AnvKTsGpiA5j2a0LaLd5b1QtVSpZGuUo10eabUyg3YRs2fFrOeJQww3l5glPfD8CUhx0w5fPacNIUwrsThsF721AM/d0/4YMhCY8GaFfGFyfjG6NZaePJXLeazVD+ygEEvtUSVc2+nzP5usldfwi+eP0ChlcvjEJFvNFwlhaNmxSFo9k1dpYstyV15I8zrdnLrtXZIvnZV43OBjp50k71MGb5OJQ9NAiveRSEV+HS6LSpDLq19ISdjXwqPSVLliWrto30l+VNaVnGotQBaVkK5EW+At7osKEMerQrBIdkwyShtYWtetbWyB5VPp6Gj/JvxdfjtyE2o+W1eLpmr4sl60OS4XZuwTpzb9QDre1Wo30xd5R+fy0eplZm4fykt/414fswsm4xFPQojKJFKqP/8fqYPq0D8vmuwoj+g/DNhtupv6+IXjGa0mXKCCVlKunTlDiF+tOLO+QOomxCPuoQi3itHeyUPW1yGfU3EdBHBOLhozDE2bvB3d0NuRJCg7Sri9MjXiPvjJOPw4Dox/fxIMQA54JeyJ8ryd7aSB+OB/5BMLh6wcvFBnGxeggbe2kneQXfvVEXf3c7il0DPRAo1YnL7QEvN/skAUXExSLWdDpRo4OtnU3CDjSptOZFmn9pHcRppHVgHuriYhCHpGXm5OnqpblM7G9clwatNO8Ji5nGuhFxiAy8j6B4V3h65IaNPC6pjvIaGCxYbkvqKMslTVt6bY3zk/q8GKRpx5mmLYuPksb3CDFOUpjIG4I1HWtgcpl1OPZtbaR63DW9ZUlr+RVWbBvap1mWAETnktZNPgdoUrxmSaV8TY2Ubcygg52dFI7TXV5VutNN/rqYpL8+LN7O01xnav+4SDx6GAJdXk/kdVQLUytLd34yXv+G6Md4+DAMBucCKJg3F4yrVCA6LALa3Llhl3QVE730mrz9Nm7euCm9/4w/saj8wKLarnap3caNW/kpRgZKopeAGpr+ef8Ydg/yNgtKrzhLljtL1s0ThIbq4OKS+BX20Rd+QIt6s1F6zWnMfzsT59GJiF4RmQmUqR/cICJ6lYm7WNrOG2Xqd8IHQ4ZiYNe3UL7O17j/7kyMbcIwSUT0tBgoiV4Kjqja8wt0LGP7jI7AZReWLHcWrBtNSXy0ehOmv18HhR1tkfe19/HjwRs4u6ANPHLWC0BE9EzwlDcRERERJeApbyIiIiJ67hgoiYiIiMgqDJREREREZBUGSiIiIiKyCgMlEREREVmFgZKIiIiIrMJASURERERWYaAkIiIiIqtooX6RudpQyF9urrYSERERUQ5jyoGJmTAxHJr6JRYIHqEkIiIiIuswUBIRERGRVRgoiYiIiMgqDJREREREZBUGSiJ6PkQMwgIf4mFQJPRq0UvPbJ7j1CIiIkqJgZKInqnY+8ewZtqneL9DS7Ro3QnvfzIRvx7xR+yTo/i6TiEUbzoLl7NLOjPNc/Mfs888ExG9AAyURPSMROLcvI4oXbw2ug7/Eau3HsK/B7dizU9jMGLhKUSptcy/cCLbyIazTET0PDFQEtEzYMCdVX3Q/OM/4e/RBt/tvY2wiBAEPQ5HVPAVLOnsxQ8bIqJXGD/jich6YXsxbcx63HNugKlb1mJY/cJwVD5dNLBxKYl3mldDHqWikd5/D2Z+3AktW3XF0EXHEWxQeyjiEXLuT0z75D20ad4C7Xp/hUUH/BGr9jXKuE5c4Cn8Nr4/urRugdZdB+Lbv64hxtgHj44txYhebdG8xbsY9P1W3Hii9EhX/KMjWDCsO9q07IiPpv4Nv2i1hyKD+Yk4iaVjRmDExD9w3m8Xvh/0rrTs7+GLX04jxHT0038bZowciZFz9yNYLRJ3t+I7uWzeQYSoZWkvFxHRi8NASURWizq3Gduvx8G92SD0KG+vlqZOi2MY07wnFhy9jvP7f8cPH76NLguuw5gpY3FlQTuUe60jRv96GDcC7uHsXz/gw/rl0XiK6bR5xnUMt1aie/U66PXDPjy0zSUFs33YuO+eFCVjcXleG1R6vR9+Ph0DR80NrB/RAjXbzsXldO4U0mpOYfw77fHtjivwO7UFC79qjdodFuF6vNzXgnnWReL0imn48c9lGN6uH5Yd98Olg39get8meG/JTeOyi3vYOXcyFu19IMVTIw3uYMfsyfh530OlLO3lIiJ6sRgoichqkXdvI8hgC8/ypeCmlqVGCIGo/y6i8A//4eKJ07iw5TOUswnF8U374C/3v7sKn4/cjOAyg/HP9Rs4d/IMfH3/weCyT3Bw6iisui0sqhN4eB123XbC29N3YPeff2DzwQs4OKUucknDDhu9BXFNf8LRU1vx599Hsf/7RtDvnIHZByKMM5mMMs+nTyPflLO4ceYEzt86hR8a5kHg9u8x/3i0RfOjjEd6RF28jUrzz+LMsZO4uGsEXrMPxtE/9+K+UiNjaS2Xk9qfiOhFYaAkIqvJv/UqR6b4OEO6969oNBrY+LRGt3r5oJG6ncvVRdV8gD4sFFEGIOjoFhwPtkPl7h+iYT7jx5M2bz307FAKNiFnsP9sqEV1XCu/jrLOIdg+rCW6fLMKJx/pYWtrKw37D44Fu6KUx038MnY0Ro8ei6V+jsivfYjzFwJSnXd5nm1LdkSfJu7GD0y7MmjbqRqc4v1x/mIQgv7NeH5kGumfXalW6FDdWel2KFkbVfJpEBP0CGFJTvmnLa3lIiJ60RgoichqLiVLw8MmDrcPH8btDMKRTe58cDVlINtccLKTo6VRbEQ4YmAPt/x5oFPLpCGQxy2P9ByH6Og4i+rYVRiGzft+Rr9Kj/HPpG6oWbQMui7zRVREBGLxBLeO78aePXuMj6PB8KhVTZr/aPW0e0o2LvkT51kKhjpbG+XD02AQiA3PeH6MBDT2ueBoqqRzgINt4rJbIq3l4ilvInrRtPJf5MrRBenJeJBB6VD+ExFZwr5SJ7xb2QFheybg8198U9wkIp82toRLcW/k00bi2vELeKyWQWq7dOY2Ymy9UNYnj0V15NDnWu1/mLf/NgJ9V6NnobtYN2kuLrsXhavGgAJt52D3oUM4ZHocPoA1A8qbBcKkYh/dwL2EM+KPce7IFURo8qFUSTcL58cCNvawl2Yg5nEwItXVFRNwGw+TrMzUl+tI4ncyERFZT/kMkrOg+mEkN43/zUi50dRbevAIJRFZz74ahv74Gao5PsTGflVRodknmLpoBVYum4NxHzZH40+3JNylnB6nOr3Rq7oDbi7rhx4TNuDf/45h85S++GT1Pbg2+AjvV7azqM69dd9g9PKDuHL3IYIjDbDRaqC1tYVTjS5oX0aDs7N6o/+83bh4ww8XD6/FmAHf4WiSu7aTir/5Kz79ZB72/HcS23/4EINW3oZ9xXfxXk0ni+bHIq5lULmoPcIP/Yjxiw/izLG1+OaL5fAz+wRPa7n4QU5EL1yp0mVEyVKlRcmSpYSP/PApKbx9fETjxk0EEdHTCDk5X/StWVDYa5U/WJWH1qGgqDlsuwiJ3CsGl7QVTjUnibN6dYCwraJfMVuRu94P4kq8sSju3t/iizc9hL1GHYfWSZRoPVUcDjYYK0gyqnPv1/bCXacRGp1O6LRa4VSsuZh8NFTpF3lunuhcyllIIUxoNFIdraPwajxVnHyi9E5Knec8dT4Swzv5CEetRpqeVuTy6STmnYtSK1kwz1H7xKel7IVzrW8Tlz18pxhYwk7kqTtdXFSW3SAe/jNIVHKWTxxppPVWTLSb8JV4J4+N8Oq+TgRKNdJbLiKiZ0XOgHIWlDOhnA3ljFhKyopyZixdpqzyKFNWfpQTZcuVVx4auadE+ghMPOUt/ytRvAR27twhlxARPQX5usJHeBgYjjg7V7i754WTcq2gQHxsLOI0NrCz1cF49aBAnFQWr7GFva35cTYDoh8/wIOQODjm84R7Hlu1vrn068RFBSPgURgMufLBPV9u2JmPXugRHuCPR1E65HH3QD4nm1TGLzPNs600zwJPHt1DQGweeHq6QgrNyaQ3P9J49NJywha20nKalj1lmVQa/Rj3HoTDroAX3B2BWH08oLODnY2xRrrLRUT0DDRp8jZu3LwhfS5Jnzsa5Vm5QVFpl5tKt/Kc2M1ASUREREQmmQmU/NuWiIiIiKzCQElEREREVmGgJCIiIiKrMFASERERkVUYKImIiIjIKgyURERERGQVBkoiIiIisgoDJRERERFZhYGSiIiIiKwiBUrl93ESGH8tR2klIiIiopxI/hFFtVVmbJcL1baEnsYWHqEkIiIiIqswUBIRERGRVRgoiYiIiMgqDJREREREZBVNqdKlhXJhpfRkbEjP0qNEiRLYuXOHUomIcpZRo0apbZSTTZo0SW0jopykSZO3cePGDSklaqT/0kMuVNqlhtwltyhFxjKllIGSiJKTAyXDRM7GbYAo58pMoOQpbyIiIiKyCgMlEREREVmFgZKIiIiIrMJASURERERWYaAkIiIiIqswUBIRERGRVRgoiYiIiMgqWuU7KGH8Dkq5aXwQERERUU6VkAvV7yk3tpvKExlzJI9QEhEREZGVGCiJiIiIyCoMlERERERkFQZKIiIiIrIKAyURERERWYWBkoiIiIiswkBJRERERFZhoCQiIiIiqzBQEtFzFRkZiW3btmH48OHo2bMnGjVqhIYNG6JHjx5K2ebNmxEREaHWJiKi7ICBkoieGzksDhkyBKNGjcKuXbtw8eJFhIWFITw8HJcvX1bKxo4dq9TZtGmTOhQREb3sGCiJKMvJoXHBggWYPn06/vvvP1SsWBEffvghFi5ciO3bt2Pnzp1YvHgxBg4ciCpVquDMmTOYMWOGMow8LBERvdwYKIkoy61atQqLFi2CnZ0dBg0ahLlz5yqBslq1asibNy9cXV2VINm3b1/Mnj1bqSPXlYeRhyUiopcbAyURZSn51LUcCuXgOGzYMPTp0wdOTk5q35Ry5cql1JHrysPIw8qnyp+vOEQFByAwIk7tJiKi9BgDpVCeIeSm9BDqPyIia8g312zYsEFpvvfee3jnnXfUPhmT68rDmMYh38zzNGLvH8PqqUPQo11LtGjTGb0++w5/nA227JPN4Iu5LSui09Kb/CQkohzHmAGVQJj4GZjQLreopaamVMYjlESUZfbu3atcDymfzu7SpYtaarnOnTsr11vK110ePHhQLc3IE1z8uTPK+jTC8A334Va5LupW8QIurcVP668hVq2VMekj1fRZSURE6WKgJKIsc+DAAaVZt25d5VT205JPjb/xxhtK++7du5Vm+gQerO+PFkPOoMGy87h2ZC1mjx+JURNmYtnW49j5dU3YqzWJiOjZYaAkoixz7949pVm9enWlmRk1atRQmvfv31ea6Yr6F7PGbITL4KWY/W5x2KnFJlqt6SPPgJBzf+DbgV3RunkrdB7wLf68GK6ezklNNM6vnohRX0/FhqvyMc54PPp3Cb7q2RrNW/XAsEWHEcDLLYkoB2OgJKIsYwqUxYoVU5qZUbx4caV59+5dpZke/bVt2HrdGx261kDat/3E4cayzqhYczC2i9fQtmsrlA/7HX2r18TArYFqHXNxuLWqD1r2/x2R9fqibWmdMny1d6bhWrHW6NqqMC5PboH6g7ciSB2CiCinYaAkoiyj0WiUpsFgUJqZYTqqKCy4oDHq3k0EOBRHKQ9btSQVgZswesR+vPbTYeyaNxwf9PoIY1fuxboPBH77egHO6NV6EhETgRubhqDlwP/QbMVWfP9OAWik4b8edRSvL9yN3yd8iF4fTcGa3/pDt+Z7rLvFiy6JKGdioCSiLFO4cGGlefPmTaWZGbdu3VKahQoVUprpkwKsiENcOvk18txOHNa/iW4ti0OnlgEuqN2uEdyuHcLJALVIEn91Hrr33Y4aC7djbmtP5QMz4ux2HBTl4HllMSZNmIAJ0uOHHVFwt/XDxdvRxgGJiHIYBkoiyjKenp5K88SJE0ozM06ePKk0LQmUziXKokj0JZy4mvZXDMVGhCPGJhdyJTuIaeeSF84iGjEJ10IKxPqdw1VdKdQonx82aqk+MgKxsWF46O+vXNcpP/zvx6NM+1YoqbP8HnIiolcJAyURZZlGjRopzcOHDz/190jKoqKicOjQIaW9Xr16SjM9ulKt0aVGIH6fsRq+adwk41zUBwUjfXHJ3+zctiTkxjUEupVESTe1ABrkajIBi7v6Y2TTblh8NUYpdSpUDPljbFD909n46aefEh7z5s3Ex2+4KHWIiHIaBkoiyjJvvvkmqlativPnz2Pt2rVqqeXWrFmT8D2WDRo0UEvTYVMOH34/FMX2DMTbHadhp18YYg0GGPRRCLiwGQvWnIGhQmf0qeWHOcO+x6HAOPnbJhF9Yz3GTtyLQu/3Rd086rhkuYqhzYzNWNLkPD5t2hsr/PSwq9AOHUudx9yvl+BsmPHcenz4VWxath0Z3zZERPRqYqAkoiwjf49ku3bt4OzsrPyE4vbt29U+GZPrysPIw5rGYQmnGt9gx8E5aHT/e7QunR8uLq5wdXFD4VoDsPZWnBI6P17xK95/MhvNSxSEp5cnClUdgBNvzcOf39SB6dsyNRot5PuBNLrC6LRgM75/7SiGtP4IfzyqiuErZ6LexRF4o4g7PAoXhlfx+hh7PCbhtDgRUU6jKVmqtPJzEPK9icpdlEq7QIkSJbBr505jLSLKUUaNGoVJkyapXdZbsGABFi1apPw2t/xzivKv5qT1RefyqXH5aKYcJoODg9GvXz/0799f7fs0BGLDAvAgMALxDm7wcHeDo43xrnMjA6If38eDEAOcC3ohf67EW3TkYQ36WMRp7WCnU4eJ1yNaHw+trb2xTOgR9vAeAqPt4ObhATeHV+vv82e9DRBR9tG4SRPcuHEDGvlGR430LD/kHkq71DCVm5XxCCURZTk5RMrBMDY2FnPnzsUnn3yCJUuWKKezQ0JClOB46tQpLFy4EIMGDVLqyHXlYeRhM0cDuzwFUdTbByW88iYLkzItHNwKoXiJIsnCpEyTGBxNdLZwcHBILNPYIo9HcXgX93rlwiQR0dPiEUoiSiGrjk5t2rQJGzZsUIJkeuTrLuXT3K1atVJL6HnjEUqinItHKInopda6dWvMmjULY8eORePGjVG2bFnkzp0befLkQfny5ZUyOcTIdRgmiYiyDyVQKr/tIB+dTGhXWomInjn55ho5LE6dOhUrVqzAnj17sHv3bixfvlwpa9q0qXIzDxERvTjKSWu13XQmW2FWbl7GI5REREREZBUGSiIiIiKyCgMlEREREVmFgZKIiIiIrMJASURERERWYaAkIiIiIqswUBIRERGRVRgoiYiIiMgqDJREREREZBUGSiIiIiKyCgMlEREREVmFgZKInqvIyEhs27YNw4cPR8+ePdGoUSM0bNgQPXr0UMo2b96MiIgItTYREWUHDJRE9NzIYXHIkCEYNWoUdu3ahYsXLyIsLAzh4eG4fPmyUjZ27FilzqZNm9ShiIjoZScFSqG0JD4LY7uxgIjIanJoXLBgAaZPn47//vsPFStWxIcffoiFCxdi+/bt2LlzJxYvXoyBAweiSpUqOHPmDGbMmKEMIw9LRETPUUIGlFqEmgsVSdtNTbmNRyiJKMutWrUKixYtgp2dHQYNGoS5c+cqgbJatWrImzcvXF1dlSDZt29fzJ49W6kj15WHkYclIqKXGwMlEWUp+dS1HArl4Dhs2DD06dMHTk5Oat+UcuXKpdSR68rDyMPKp8qJiOjlxUBJRFlGvrlmw4YNSvO9997DO++8o/bJmFxXHsY0Dvlmnqehf/Qf1s8cht4dW6FZ09bo3G8k5v59HsFxaoUX6iF2/jACI0ak/hiz7BSebmmJiF4sBkoiyjJ79+5VroeUT2d36dJFLbVc586dlest5esuDx48qJZmJAa+K3qhknc9fLr2DvJUqIsG9Soib9AefDfga/wTqFZ7oQwIvecLPz8/6XEd57b8gl93X1K7/XAzIFKqQUSUfTBQElGWOXDggNKsW7eucir7acmnxt944w2lfffu3UozI4/+/hjNPjqK1xefxbXDa/Dj+BH4avRkzP/zCK6fnYUGTz8bWcATHaf/jjVr1kiP2ejuo0PuNz/HL0r3Giz7oh5yqzWJiLIDBkoiyjL37t1TmtWrV1eamVGjRg2lef/+faWZrqh/MXPU73D6ZCnmdC4BO7XYROdaFIXzSC0GP2ycPAITVh7EvytHo0+Pwfj1sl7qEY9H/y7BVz1bo3mrHhi26DACkpwiT6d/vB/+ksf521H8t3Ey+ndohdbdh2P5mczcpZ7+fMQFnsbayYPQpVVztHv/M8zeex/y3BMRvSgMlESUZUyBslixYkozM4oXL6407969qzTTo7+6Bf/4eqPjezWQ9m0/Mj2ublyEf9bPxOeL78C1oDOEIR43lnVGtXem4Vqx1ujaqjAuT26B+oO3IkgZJoP+Gj2uSOP8e+1UDF0ZiaqtW6L849Xo17gbfrmd+EUbGctoPkKwfcxHmHnODW917YFmHucxpVk9DNkZqvQlInoRGCiJKMtoNBqlaTBk/opArdb4MSVExqEsyv8WAuyLoWRBW7UECDywABPHj8d45TEJy4+HK+UaTRTO3a2Gn7Yuww8zvkVP9634etRRvL5wN36f8CF6fTQFa37rD92a77HuljTtwE3p91fHee1JMyxcNRED+gzA1BVz0dXhMNbt8Vf6WyTD6TjhjYm7cOi3iRjUozs+mrYEExuHY+/2C3hiHAMR0XPHQElEWaZw4cJK8+bNm0ozM27duqU0CxUqpDTTo5HCp8YQB71ZfhVht/DfyZM4eXwPfvt+MY5FqR97wgYlmzZHOfW8eMTZ7TgoysHzymJMmjABE6THDzui4G7rh4u3ozPsLxPCHqUa10MJndIJuJZExcIaPA6KsPgmm4ynYwtXZz2u7VuNWd8MRq8OvTH3fAxiIqPwUtzATkQ5EgMlEWUZT09PpXnixAmlmRknpTAosyRQOnuXR9HYizh+JfG3wAu0/BZ/bNyIjYs/RHkbtVAiYAfXAnlgKtJHRiA2NgwP/f2V6zXlh//9eJRp3woldbEZ9jfSwd7RPvGDVWMLB3tTurRMhtOJOo5JTSqh0ZDfcFVXCk16D0Wfuvlhox4NJiJ6ERgoiSjLNGrUSGkePnz4qb9HUhYVFYVDhw4p7fXq1VOa6dH6tEGP10Pwx4zV8H3Kw3VOhYohf4wNqn86Gz/99FPCY968mfj4DZcM+z8rGU0n/OAiLLjaAHN3/4W5Yz7B+22rwCk0FHEWXBJARJRVGCiJKMu8+eabqFq1Ks6fP4+1a9eqpZaTv0LH9D2WDRo0UEvToSuFvt+PRLlDn+DtjlOw/XoIYgwGxOsjcM/3HiLTOYhnV6EdOpY6j7lfL8HZMOMJ6vjwq9i0bDvk24Ey6v+sZDwdKTjGBODOoxipXQ//LTOx8Fik/HO7REQvDAMlEWUZ+Xsk27VrB2dnZ+UnFLdv3672yZhcVx5GHtY0Dks4VP4cfx9ajNahP6F9WXe4urjCJU9eFG8yHQEN+6BlceMNO1qtDknypX11DF85E/UujsAbRdzhUbgwvIrXx9jjMcbT4hn1l2h1ttAl+1TV6Gygy+hstDScrWm4DKaTu/4QfPH6BQyvXhiFinij4SwtGjcpCkcbnvImohdHU7JkKekPW+mf/NetsU1p9y5RArt27TTWIqIcZdSoUZg0aZLaZb0FCxZg0aJFym9zyz+nKP9qTlpfdC6fGpePZsphMjg4GP369UP//v3Vvk9DQB8RiIePwhBn7wZ3dzfkSghdAoY4PeI1UpBLnvaEHmEP7yEw2g5uHh5wc0iWENPsn/o4DXGxiJPK7NJJlUKqo4dUxzwUpjcfIg6RgfcRFO8KT4/csJGHz2AaT+tZbwNElH00btwEfjduQL40WyP/6S21JG9XuuR2pVUDXd68+cbK7cm5ubmhV6+eahcR5STyr9I0btxY7bJe6dKlYWdnp5y+lq+JPHXqFIKCgpSvBHJwcFCulbx06RI2bdqkhM+///4bOp1O+gzqpQRQe3t7dUxPQ/qAs3NCHre8cM3tCFut8rGnkj4EtTrokpSpNDrYO7vCzTV36kf90uyf+jjTnI6ZVOukNx8aLeycXODibA/5lh9LpvG0nvU2QETZx/Lly/E4JCRFiDRvV7rkdqVVavIIJREll1VHp+TAuGHDBiVYpke+7lI+zd2qVSu1hJ43HqEkyrkyc4Qy2bkcIqKs07p1a8yaNQtjx45Vjn6VLVsWuXPnRp48eVC+fHmlTA4xch2GSSKi7IOBkoieK/nmGjksTp06FStWrMCePXuU06vyKRa5rGnTpsrNPERElH0wUBIRERGRVRgoiYiIiMgqDJREREREZBUGSiIiIiKyCgMlEREREVmFgZKIiIiIrMJASURERERWYaAkIiIiIqswUBIRERGRVbTyT3hDfUpoN/6wt9xFRERERDmKlAHlLGj8b5SsPTkeoSQiIiIiqzBQEtFzFfkE2HUMGLMA+HAS0OpT46PfRGPZ1iPGOkRElH0wUBLRcyOHxa/mAON/BvaeBK7cAsKjjI+rt41lk38Bhs8GthxWByIiopceAyURZbmwSGDJX8CPq4Gz14DyJYDeraXuL4ANM4C/vgfmfAl80A6oVBI45wvMXmMcRh6WiIhebgyURJTl/tgFLNsM2NkC/aTQOOMzoI8UKKuUAtxyAy7OxiD5fgtg2mCpTntjXXkYeVgiInq5MVASUZaST13LodAtD/BJF6CHFBpzOag9UyH369HcWFceRh5WPlVOREQvLwZKIsoy8s01fx80Njs1BhrXVHtI/v77b0ybNg3t27dHmzZtMG7cOGzevFnta6zbqVHScWQsFIcXjMSYX04gXC3JCrH3j2H11CHo0a4lWrTpjF6ffYc/zgan9k0aREQ5AgMlEWWZA/8Zr4eUT2d3aKgWSn7//XfMnDkTa9euxZ07d+Dv749NmzZh1qxZSj+TDlKglK+3lK+7PHpOLUyXAcH/rsKKw4+ktqzwBBd/7oyyPo0wfMN9uFWui7pVvIBLa/HT+muIVWsREeU0DJRElGWOnDU2a1dMPM0tH4VcuHAhHj9+bCwwI5fJ/eSjlzJ5mFrSsLL9p43NF0fgwfr+aDHkDBosO49rR9Zi9viRGDVhJpZtPY6dX9eEvVqTiCinYaAkoizj/8jYrFra2JSdPHky1TBpIve7cOGC2gVUK2ts3g80Np+eQNT1LZj5WQ+0bdEK7344DmvPm06Ix+PRv0vwVc/WaN6qB4YtOoyAOLVXclH/YtaYjXAZvBSz3y0OO7XYRKuVPk4Nftg4eQQmrDyIf1eORp8eg/HrZb3UN/3pxAWextrJg9ClVXO0e/8zzN57H/JQing//CWP87eDOPrbaPRs0xpdPv8ZJ4LiER94HL8M745Wzdvjw+nbcZeHSInoBWGgJKIsYwqBRT2MTZkcKDNy5EjiXTimYU3h9OkIPNzUH9Wq9saa8Epo36Mj6jhdxn4lUMbjxrLOqPbONFwr1hpdWxXG5cktUH/wVgQZB05Cf20btl73RoeuNeCklqWkx9WNi/DP+pn4fPEduBZ0hjBkNJ0QbB/zEWaec8NbXXugmcd5TGlWD0N2hip9odHjijTOv9fMxtRDedGgTQ2ILZ+jVc9h+Pjdj7E111to3ygvTk5ohzaTTiDaOBQR0XPFQElEWc5gdreKTqdT29IWHx+vtkkfUhq1JTNCdmDMp+vgOW4X9v48HL279cHnP6zCnK5eQOAmfD3qKF5fuBu/T/gQvT6agjW/9YduzfdYdyvl7TVR924iwKE4SnnYqiWp02iicO5uNfy0dRl+mPEterpvzWA6Tnhj4i4c+m0iBvXojo+mLcHExuHYu/0CTPchyeO8oWuDOXOGou8HY7BkXm/k2fozzrVcghVj+uN/X8zDz5+Xx42tu+CXuOqIiJ4bBkoiyjJeBYzN2w+MTdnrr7+utqWtevXqalvisJ75jc2nEXV2M3aGvIE+71VMcX1jxNntOCjKwfPKYkyaMAETpMcPO6LgbuuHi7dTO84nJVsRh7iM7vYRNijZtDnKqefEM56OLVyd9bi2bzVmfTMYvTr0xtzzMYiJjILprLgQDvCpWx2earh2LlYWhXMXRb36JaWhZXbw8C4Em9BAhKV1yp6IKAspgVL5W1x9Svl3ORFR5phC4KnLxqasQoUKcHNzU7tSkvuZB8r/rhqbpnD6NGJCQxBl5wrXVL73Uh8ZgdjYMDz098f9+/eVh//9eJRp3woldSkvRnQuURZFoi/hxNX0f7pHSOHOtUAe2KjdGU4n6jgmNamERkN+w1VdKTTpPRR96uaHjcb80KwWtva2cqQ10mql//bI5WCailRkYwMtP8CJ6BlK+EgRZvnQvF1ibBc8QklEWeet14zNY+el3KQe9GvZsiU+/PDDVEOlXCb3a9WqldItD/OvNKzs9crG5tNwKlQM+SN8cck/4RaXBEq/GBtU/3Q2fvrpp4THvHkz8fEbLmqtRLpSrdGlRiB+n7Eavk9xFDCj6YQfXIQFVxtg7u6/MHfMJ3i/bRU4hYYiTvrQJiLKLhgoiSjL1KkEVC4FXLwB/LlbLZS8++67GDJkCFq3bg0vLy8UKVIEnTt3xqeffqr0M/lzT+L3WNarqhY+BbtKXdG7+jX8+PkMHAjQS39DC8QGHMfOk0Gwq9AOHUudx9yvl+BsmPE8dnz4VWxath13la5kbMrhw++HotiegXi74zTs9AtDrMEAgz4KARc2Y8GaM4hRq5rLeDpScIwJwJ1H8tB6+G+ZiYXHIuWDAERE2QYDJRFlGSdHoOWbxuYfUqDcdVztIZGPQo4ZMwZ//fUX1q9fjy+//FI5emki15V/dtF8HBbR2sLWdN+PbQUM+W05ukX8iObeBeHpVQiFynbDr7fjAfvqGL5yJupdHIE3irjDo3BheBWvj7HHYxJOVyfnVOMb7Dg4B43uf4/WpfPDxcUVri5uKFxrANbeMh621Gp1iaemZRlMJ3f9Ifji9QsYXr0wChXxRsNZWjRuUhSONolj0epsoUsyUg00Oq30AW6eOrWwseFHOhG9GBqfkqWERD0nLv2TP5+kJ2/vEti1S/o0J6IcZ9SoUZg0aZLaZb0lfwHLNht/m1v+CUb5V3PS+j1v+TS3fDRTDqCPw4BerYC+bdSeFhBxsdDDFnZmgUz+iqAnQf54EGGLvB7ucLE3C15Cj7CH9xAYbQc3Dw+4OVgSygRiwwLwIDAC8Q5u8HB3UwOggCFOj3iNHGqTJMD0pyPiEBl4H0HxrvD0yA0beRmkcdgp40hlnIY4xOrjobG1h61pNPF6xBq0sJXSdLIpZ8qz3gaIKPto3Lgx/PxuyF8xIf2XHnJhau3SQ+3kEUoiynpyiJSDYaweWLQe+PJH4Nd/jKezQyOk4BgOnLkG/LIJ+PwHqc4GY115GHnYp6GxsUsWJmU6OOYrghLFPJKGSZkU1PJ4FId3cS8Lw6RMA7s8BVHU2wclvPKaHU3UQCtNP0WYlKU3HY0NnAoUQVEpTMp3bSvLkDCOVMaptYGdvVmYlOmkAPqMwiQR0dNioCSiLJfHyXiU8ZMuxush5SD5sxQaP54GtBkKtPscGPwdsFQKlPL1lvJ1l4O7GoeRhyUiopcbAyURPTfN3wCmfgKM6AM0qA6ULgrkzmV8lClmLPvmA2DKx0CzjL+ukoiIXhIMlET0XMk318hhcVx/YNFoYPNM42PhKGNZ41pPcQMOERG9FBgoiYiIiMgqDJREREREZBUGSiIiIiKyCgMlEREREVmFgZKIiIiIrCIFSuNPdynP6pPxHxERERHlNMqPJiZrSylpPx6hJCIiIiKrMFASERERkVUYKImIiIjIKgyURERERGQVBkoiIiIisgoDJRERERFZhYGSiIiIiKzCQElEREREVmGgJCIiIiKrMFASERERkVU0PiVLCiEA9QnKP6np7e2N3bt2qdWIKCcZNWqU2kY52aRJk9Q2IspJGjVuDD+/G9BopKAoPcn/5A5ju0RpN/aTno3tDJREREREZJKZQMlT3kRERERkFQZKIiIiIrKKFkJ6lk93y42EJ7MmEREREeUcpkAo/zc21G75wshEanxUevEIJRERERFZhYGSiIiIiKzCQElEREREVmGgJCIiIiKrMFASERERkVUYKImIiIjIKgyURERERGQVBkoiIiIisgoDJRERERFZhYGSiIiIiKzCQElElFPEhuNRwCOEx6rdmSCePMbDR6GINqgFz1BWjpuIspbGx6ekkCi/zSg3jb/TKOBdwhu7d+8y1iJ6hTzc8yNm79Sg8aefoGEBtTAjIgo396/FstVbcermY+gd3FGqZlN07tUJdQs5qJVejDjf9Zi2+BjC5Q6NLfIUKos6zdqhgU8uaJQaOdfDP7qh9lADph5fjS4F1cIcTPjNRoPqK9HyyGF8WTad4wmGcFzbuRJL1+7C2XtRsHUrjIoN30Wv95og395eqDDIAcvOL0CT3Gr9ZyRkszxueyw9vxBvJxs3t3Oi56dRo8bwu+Envbekd5dGelYeUmuybqVEbpfaeISSchZxF9vnzMT8OZMxa5u/Wpg+EXwA45uURMVO3+FIbDHUrN8ANUtocHnNKAxdcA5WHOx5JjT6q9jw01ocvnodfldOYetPQ9C0bAX0+vN+kh/xz4nyVGiF3n3bolIetYAyZAjYiRH1fFC1+2ycFN6oVa82SuV+hC3fz8PBMGOdLN2u0hg5t3Oil5s28Y1obFOe+e6kV5Th+kb8csgDrdsXxL+/bsKNjE6txZzDrK5dsFA3GDuvncfWxVMx+qsRGPf9cmw744ttn5WDrVr1xXJHq29XYc26zdh34TL+fB/YNHc9buTw97JjuW4YO/Y9lHdUC3I447modDw5je86d8dyp8+xx9e4vX898htMXfAnjp//DV3d1XovDLdzoucp8a0ltRn/GylntNV2idzKI5SUg+hxcd0KXCz3HoYNbg+v48vwx+U4tV/q/Nd9g29P18TkJcNRx1U5vm/GFq5uzsqh/qD9czHq60XYf3kfZn/yPvpM3YPHcpXoO9iz4Ev0at8SLdr2xJcLD8A/4ZCmwM1NUzDyuy24m/guxZ0t0zByyibclMJu0AHjeI/cuYDfx3+A9i1ao/swqftRvFo/kXzawcgJ+dydYKPVJn2DpzMv0RfWYOLIr7HoaKixQBJ1ejnGjpyEtZdi1BIjeVlHf7MAh5UFlMXiwppx+GbRUZiGFv47MXP0t1h3JTb1dSOicGPXPHzVuz1atOqMfuPW4FJE4qeTJcttUR152qMX4oh6ZM00zCHfY1g8vAfatOiAj6Zvxx2zw8wi9BzWjpPH1xJdh87H7r2rMGnEJPx5Ta/WSCajZcnibSPdZQm7iD8m9EOHlq3xnrQs++5Fq31Sd2/dWEy/UAdTlnyJWi7JtnedPext1HaJIfgkfvmqB1o3b49+U/7GDfNRR13H39MGoFOLFujY/1tsuBql9lDFPcLxFWPQr1MrtGzbA0Pn7MW9VN6Khod7MfebURi/5BhC1LIs387Tnfdo3Nk9F5+/3w4tW3XBx1M3wzf9VUqUYzBQUs4RfRqrVl5HlW5tUL7yu+hW/ipWrT0j7SLS8ghHNp+AfdPeaF44eZhMShd2DEtXrMOsgV9iZ1xBuGilvWPYAYxqUA1dFt5F0UYd0eEtN5yd0gLV2szGRWUHJxB9dRMW/+MnRd1Esb5/Y+GGK5B3b7rQY1i2ch1m9Pwf1sZUR7sOtWGz9ys0rjcE2xMCnZE+5glinoTi5t5ZGL9KjzaftEdx02xnMC8OFZqiTsQ6jB7xCy7JMxPvi+UjRmK9/k00K2dvHIcqn48z/vtpBv64oO5o467h7x+/x/SZv+NspLHo8cnl+H5dMDyL2qW6bgxX5uODwX8irFwr9Hi3BuL/GoQGnRbAVz1ibMlyJ9TplV6df/HLrycRqa4HeZilK9dg6gdf4d/8DdCmfh78O74Nmo8+iAi5QvAOfPrmm/hkm0CNNh3xluMOfDlyDtYu+gvX4lL/uMxwWbJw20h3WUJ24fN6b2DQFmlZWrdHPcdt+OyLDQhN81P/Ef7dcgoO7/RCswy2d63OD3N7DcMht/po28gNpya3R9Nhu6DkdmnZRjZ8AwO36VC3Y0fUid+AD95ojVnGBQOenMEPLaui2aQzyNeoC7o0K4ngI8dwP/nZgvCjmNipC747WwSdutWCq1qcpdt5uvOux6XZrVC9+++Ir9UBXVpVhv7sKfin/NuOKGfy9ikpvL19RAlvb1G8hLcoVryEKFasuGjYsJF8sw7RKyN8z8eiZP5WYtlduSte+M5pKFxLDxH7IpTeKcVfEdNfzy0qjT4hYtQiob8uNn8/XowbN055TJizS/gbhHi8qafw1BYS3f54qFaMFWe/rSVcKg4TB8LUIknctbmisUtB0fWPAKkrXlya/oZwbzBH+EnjMDII3x/fEvlqfycuxwsRIo9X4yXVvy/1UQX8Kbp5uYgm828oZXEXp4ia9jph75Rb5M5lL2xcq4qeU/8U5x5LI1BYMi+SwL9F3xKeov3Sq+Lqsk6iRKWhYm+osVcShptiwdsFRY0J/0ljlsZzZYZoXKuNaFGhuvjmlLymIsT+YVVF5U93C3lyKdeNNIrge8L/idohidg/RJRybSYWK6+NZcttSZ3Hf70vPIt+KHaoy63Mi00pMXBniLFA6MWFaW+I3GWGicNPYsW5ybWFc6mPxe6E9RQvbi1tI/Lb1xJTLsapZUlltCxZtW1YtiyfiN0Jr2G8uP1rO+FuX1tMvWTaNsyktr2nQpmurqT4aPtjtUQvLk6vK/KUHioORknLJk03X40x4lik2ttwV6xoV0iU/WyftGXEias/NhCu3v8Tmx8lLFgCedxeRfqJ7QHnxdzWxUSRZj+I/9TxZP12ntG83xW/tHAXFYYfFlFqb6JXlZwBixUvrmRCORvKGVHOinJm9ClZSpSUHqVKlRalSpcRpcuUVR48Qkk5RDD2/7YVsY26o2HeCISFRSBfo06o/Wg9lh8wnUxLRqOBTnqHxOnjkHgCMwYPLp3EqVOncHzzQny/wRd609ERt9poXc90kZk/Du26jmLtu6KW2d2qOp/m6FhdjzP/XkvnyGgiZbr530TH+h7KqXVFgdfRsrYj/M5eh3pAELCvidG7L+PKtSu4sP1rlDrwOd548wvsVQ4ZWTgv+Vrg2xlNcPGHzzF0ui/azPoG9VO7mUVTBA1blsadHftwy2DAzd17EfN6J7SvGo2DB2/CoL+G3bvDUK1JVSRMLsm6kUbh5gXX4FPY/PNkfNm/Kzp9uRmP4qMQGWNc05Yst8XrJrn8tdG0movaYQOvsj5wDg/E45j7OLLnGgq17oo6CTOuRZF6jVEunWswM1oWRRZsG4r0lmW3tCxtuqBOwmuoReE6b6FUessircj4OPPtPQ0FaqNZDdMxQxt4lpGmGxGEkJh7OLj9OgqXFtg6YwImTJAeE5fgvC43gi5ek96F97B383kU6twPjfMnvGpJaR9h48COmBzRH+t+/xRVcqnlsme9nc8w285FRvNeADWblMOdOb3QfcIGnA9O/3IZopyGgZJyhoc7sXSjH+5t6Iuy+QvC09MThWoMw97wu9iyfDcC1GpJaAqgTFk3PDx9FvdNe1ibcvjfwg3YsOF3jG2WTwoyZrveXPmQz7SzNjxBWEQ8HJwcoVOLFJpccMvrCENsLCw+U+bgApckZ5010MrvXPXrvkwcXD3g6VUMpWt2wOj5o/Hm3TX49bC0p32KeSnYsDeaxe3E/lwd0KO2Kagkp4V3kxYoenUHDt2XAsI/91GxeXO887Y3bm05hLu39mN3cA0p2Lmp9SXm60aa63tru6NihfaYsvcx8kvz++mXnVDK7Po8hSXLbeG6ScLWEY5m09LZO0iRSKpviMTjUAE3j7ywU/slSCP7WLwsWbVtpLUs8ZEIDjHArWCyZdHZJJ2mOW0BlC7tigenz+FBmivPSGObC7nMp2trZ9yZiGhEROkRFeyP+/fvJzxC3Rvi3ToFpL/OpHUcEgdnt9xp3sym0QTh8pkAuFV8DcXMw6TqmW7njmbbeUbzLuxQ4bMt+G9NL9iuH4A6RUrgnUmHEq7tJMrpGCgpBxC48/dS7HLoi79uPYC/v3/C4+LSjojf9gu23EttD+qKN7o0h8v+mZi5N+VuI82MIdPmg4+3MwIuXzfegGEScx9X/aLhUbIwHKUx2NnbIvZxIEITDnbEINA/CLHmI494iAfKRXGqqBs4cyUGXqWLwkktSk4YDDCIeMTESCO2aF5kwdgx9kvsrT0enzovxpAZJ/BEKU9JV7opmhc8g23r/8CmO1XQunZ+FHqrBbx9t2Hjpl24X7k16uZXKycn/LBu7lbk//If7F0xDV9+0Bn1CsQgJPk9L5YsdybWTZq0eeBRwAYPr98xXoOoirx9DffSWhGWLou5p9w2wtLbNtKic4GXhy0e+t4yfm+jKvLmFdxN8/CnG97o1ARO+6TtfV8mY5LWDcWK5IK+cAd8+9NP+MnsMXdsGxSxyYviUkp8cNkvzSAm4stiyMrJKPZ7V7QYsQfB6YTbtLbzJOO2dDvPaN6V9e6IEi1HYc2p27i6qgVuT/4Es8/xSCWRjIGSXn3xvtiw/CjytnkP9TzywMXFRX24wrtlH7R02o9lG64j+T0BMpcm4/Fjzzgs7PA2Bi0/iQdRcTDE6/EkyBd+D9PbkRRAw/ebQbP2Swxf7WvcYYkQnJgzHHPv1UO/dj7Sm0+DAuXKw+3Kn/j1YBDipeAbeXklZq69AUPCnaySsP2YM2ML7skhRRrHvz+OxM/+tdCzTckkb+DoEPmIyl34nf4LE/uPx778rdCtXl6pjyXzAgT+/QX6/14MX4wbii8mdkPUDwMw7UQaScq2HFq09sDV9X/iTsXWqO0qZZiiDdDU/TzW/nkdPq3fgodaNXXxCL3njzApLIiI81j+419IkektWW4L141lvNCgfU2E/vYNpu4JgPzqxgXsxfTvtiEs3e+GsmBZkni6bWN5ettGmjxRX16W1eMx3bQsj/bj++93IDzF4ddEeZtPwIxOkfip/dv4eMVpBDyRtneDFNhCb+HwL3Ox+a5aMU0F8da7dfFk1deYuO2e8TtaRQweHPwZyw7J0bYgGvV8B1jzBb5YdQ3KbV0iCn57D8LXLIQ7lO2PVX99AceF7dFyzKGEbw+QWbKdf5mp7TyDeRd3seePfbgXLb+4tsjr7YMCtvHQ6w0IPSe9Tn9fS/syC6Ic4Ok/c4mymdjzv2PlaXe06lw78Zo+E9d66NmpMM6tXo+LqR1V0kjDzTuArSOLY/9ndVE0rytcXF3h5lEVH+xwR9f36qh3n8qnWpPu6PM2n4W/fngNhwe9hkIFveBV0ActFjrgi7+Wobt6F23uBsPxbedoLGhaCHnze6B0l90o264WnMxGpSn8DhpFjUftwtI43IuhyQ+ReP/XX/A/b9PbV5p23ClMblIOZcqUQ6U3e2NpTGes3DEHLeT9rCSjeREP1mHoJ1tRbuw0dC2shXOd4ZjRKxbzBn+H48m+8cXIARWbvC7luavwafM68slFOm80apYLp8/kQ/MGhaW5Mkm2bjQ+eG94D9itaAtvz8IoUqY7DldqicrJfnAo4+VW60Smv24Sv2ZGJl8Xa94t5YSEMg2K9pyPRT2eYF5zbxT0LISiNUYguGlHlLVJ+foqLFqWrNo2MliW96Vl6RaFn5oXRd587ihU/SsEN+uEMmme85ZoC+HdXw7ir8EFsHVQHRR2M27vrgXKoNXU44hSh026TuXpSoOqZR7vzsOqz5ywsmMZeBQshCKFi6JK3/UIdDCeI8/fag42flcJBwdKy+7uhUJeJdBg/JGEMGYat3PNkdj4x/8QPasD2k8+jnB5PWbxdp7WvAcp8x4Hv2XdUN7THV5FiqBEo/lwGr4Qw6pF4MAPn6HfZ7NxzPxwMFEOo5Hv2DH93KLyPZXGJ3h786cX6RURr0dMnICNnR10SfeDRkp/SP1tU+9vYohGSEAAgqMEcuXzgLuLfeJfZAZ5HFrY2emk3V5SQh+BR/cfIcoun7SDywO7FNMw4EnQPTyIckRBr/xwFLGIhQ3sbbTKT9GVH+SA5Rfmo16cPx6E2yG/ZwE4mV+jZ4hDjN50dZi007W1hW1q4UeS5ryo60gnrSMpOyWUResNUpm9ND61zJyIR2xsHDS2Zv3l8cRrYGtnk+G6McSE4uHDMNjmL4T8DgbEStPS2krTlwa0ZLktWzfJpq1220rdSefPfJ4FYkPuwz9MC7eCBWF7ejhqtb6EL89uQk9PpUIK6S1LVm0bFi9LqLQsIRrk9fRAHlv5NTObt/TERSFY2t4fR+uQu0BBFMhtZ7YOU3uNk5bFRz7CvQApYTm5w7OAM2yTLZuQ1tmDB49hcHZHwby5jNtdKuMxxMVAb9DBVnpd9c9pO09z3kUcIoMeIlBK1q7u7nBxUAfQhyMkNhdcndJL60TZh+mnF+X3mvxHnvx3nvIDi0q70mb840/tljFQEr3EEkPTAjRxVgtzAEuWOyvWTXx4CJ7kcoWzKReIR/hnwJvodXUwjuwchJIJCYqI6NWVmUDJj0ciIlXEwaGoXOg1NO8xCEM/7YvW1Srj3Q1FMHxGH4ZJIqJ08COS6GVWoBE+G9IYBdTOHMOS5c6CdePy9kxsX/0FWpR3ha1DMTT5ci3O++7AsNdS+f4aIiJKwFPeRERERJTAulPeUo40MbaaFRARERFRjiEfX0yQSiRMKFIr8pQ3EREREVmFgZKIiIiIrMJASURERERWYaAkIiIiIqswUBIRERGRVRgoiYiIiMgqDJREREREZBUGSiIiIiKyCgMlEREREVmFgZKIiIiIrMJASURERERWYaAkIiIiIqswUBJZQsQgLPAhHgZFQq8WUU4Vh6jgADx8FIoYg1r0vGW37fGZzm88Ivwv49TJ87gTGqeWEdGLpvH28RFCSG3Sk9yi/JO6fbxLYPfu3cZaRDlE7P1jWP/rb9h89BqC9I7IV7wq3unWF12qXMMXlRtjoet4HDs6EpVs1AGyhXgEnd2E5cs34ODlAMTmKoLqLXuiX9e6KGSvViHLGa7ih7eqYdid7thyfgHeya2WJ3iInT/MxK4AY5fGNhdc8xdGmRpvol6NUshrZyy3StQ+DFG2x3H49+goVH6h22PS5YXWHq6FK+Ktli1Qp2guaOSyhPm18v1juIffP2iI3kuvIUrkRdsVF7Chu4fak4ielUaNGuG63w1opDewRv6ntMhNuSG/q41lykMeQGryCCWRIhLn5nVE6eK10XX4j1i99RD+PbgVa34agxELTyFKrSX95aU2swn9HawfUBXFqrbH0B9+w7bD/2L/X4sxrveb8C7zLn6+HK1WBCJ8t2PBqEGYtDNYLXn1PKtlVP74FmkdnozDnR3zMGXKNHw3fQamTx6HEZ/2Rbu6peFe8DV8uPIqnqg1rZf29vj8Xk91eadOxw8/zsaPMyZhxMB38YZ3Cbwz47TZe0eeW8vfP6nNf9TBqfhq2XUUeG8lLt47jin1nNU+RPSiMVASwYA7q/qg+cd/wt+jDb7bexthESEIehyOqOArWNLZK5u+UZ7g1LR30XP+edjU+Qr/+IUiLDgIIREPcWxmGxS4+wc+fnc09ofJdQXubxqHz77diOt6nTL0q+f5LaPyF7xLU8y/Fo7IqEiEB9/C0eWDUUt3Dot6NcEH6x6qNbPK8309leXN8w7mXgpBeGQEAk7+iNb5A7Fz3DAs9cvMH2Gpz//j674INLiheqsmKOfljbJFGSiJXhYMlERhezFtzHrcc26AqVvWYlj9wnBU3hka2LiUxDvNqyGPUtFI778HMz/uhJatumLoouMITnKgKh4h5/7EtE/eQ5vmLdCu91dYdMAfsWpfo4zrxAWewm/j+6NL6xZo3XUgvv3rGmKMffDo2FKM6NUWzVu8i0Hfb8WNtA53PfoH0+ceR6RHJ8z741s0L+aovOE1NvlQc8gyLO5THPrzv2D6xnPYPWsk5h94LEVrPa6vn4IRI6bhnzspg0Cq8+W/DTNGjsTIufthOpYk7m7Fd3LZvIMIkQsiTmLpmBEYMXEdLt07jPmfd0PrFh3w4eRNuG6af0vqKDJYf5GJ4zlzaT3Gf9ALQ1cfxa40lzGjdRoF301T8FGnVtIyf4p5B+4nez3TooHO1h620iOXa1HUfn8Wtq0fjPLaO/hzys84l3D5X/rTT3tbMBeLK9JrPGrUKIxfthOb01zWDNadxa9B6nQ2NtDq7JG/Wk8MbOkFhF/FKSlUpybW/wh+nTgQXds0Q/O2PfHVL8cRFC/3eZTK9jgGUyeMwty9Qcoxzgc7f8DIUdPw9y35zZeZ7eEqDGbLeubyJnz7YQe06jAA3+/xl16RKFzbOBEftG2O1j2/xppLEerIiChN8jWUJbylRwlvUbx4CVGseHFRtFhx0bBhQ0GUE0Qe/EyU1kK4d/5dBKhlKUTuFYN9dCJX9TaiVfnComz1qqJobq20b3MRTX7yFfFKpRhxeX4r4aGDsHUpKipWqyxKuNkJaFzEm5NPikgL68TfXCE6F7UVNq5lRP32HUXLuuVFraF7RIQ07KWfmouCWhuRv1JT0b5FdeFppxH53p4jLsUqI08ifOdHopgGwqvnJhGslpkL295PFJX79/pVLO5eRni62QspQgvnAl7Cs1gb8fMttaIqzfm6u1g0ywORv9OaxPV3Z6F42xmiQJc/RKDcHbVPDPbWilw1OooOVQoJn9dqikqejtL0pPlvNl9c01tYx5J1bBpPzU6iQ1ln4Zgrr6j73T6xMtVlzGidRoijY2oKZykj27qWEFWqlRce7uVF9TJOQlPkA7EtTK6T3F3xSwtXAZcWYsldtcgk9pQYU0Wa39xvi4W35YL0p5/mOle3R4fqE8QZab083jNUVHLQCNd634oTEffFqjSW1eJ1l+5rkFzi8v5yTy0S98WKdvkEdGXE54ejEt4/9tUnirPKOG6Ln5vlF64+dUTzju1FozKuQgtHUe2b4+KJNGzK+W8mBnapIArldZTqSfOXz0sU8m4jFt6IzuT2cEHEmcqrvCMal/UWlauWFvntpbxqX1n0/ripKFywrKha3lPkkt4juiK9xF/KhkyUM8gZUM6CciaUs6GcEeWsKGdGn5IlpUcpUbJUaVGqdBlRWn6UKSsYKCnHC1jdUeSDragy9j+R6v5SJu0QP5F2PtCVFB9tCxQGqSj84OeinA2ES/PF4o7UbbizVLTMC2FXfrDYEWiMmPFBO8XgctIOzrWZtEM3WFTn4W/tpflxFc1/vq0GVSmHxMYmDJuv+ULhq8yoXlyb01jk0ZQQA3eFK/XMPfi1rXCTluu18WdTXa648xNFdTsIt1bLxD2pxqXv3hCOKCR6bU4tfoo050tYGCiN689bfLA5wDh8zCUxq5GLVFZWDJNDhwV1LFl/pgABrbtoNvM/EW6IFzEx8hpIuYwZrVPDrZ9FM1cI+4pDxZ5g+VWXRv/fFPFmbkiBst/TB0qp3+JmeQTsaojJF+IynH6a69wsUJ7yXSE6FZLCWukPxMb7xnlMb1kzWncZvk4pqMvr+o74bs8JcWTvRjHno1oin/RHmlPtieLUE6lKikDpL47tvSwiTLMbukt8XMpGWp6JSkBObf6lJRC3FzUVeZBPtF95X3kPWrU9mJbVrooYeTRCGjJO+M1/R7hIfzxoC3UTf9yXxxck/upZSGg0RcWHO1J9sYleSZkJlDzlTTme8i0HEIiPMyin09IiXydm49Ma3erlU+5qcy5XF1XzAfqwUEQZgKB/t+B4sB0qd/8QDaW9qUybtx56digFm5Az2H821KI6rpVfR1nnEGwf1hJdvlmFk4/0sLW1RdDRf3As2BWlPG7il7GjMXr0WCz1c0R+7UOcvxCQYt61tjbQwoDY6FjpOSVDbLTytTd2efLAATro1EvVdLrUPxbSmi9LyfcC2pZ5F/9rXMB4rY1dGbTpWA1O8f44dzHIojpBRzNef0YaaAu3w2d9q8BZo4WdnXxbccplzGidBp3chdMhdqj0Xl/Uc1PuZYRjpXZoXymX1Jbe1pIGEY2IyHhpuVzg6qTLcPouGaxzrdYXP/X6BH9GN8TUdbPRxsM4j6kvq2XrzpLXKTnpTyUgZDu+aFgDrzdoi48XnIFt3S+xdt1wvOagVkrCEzWq2eLk6hkY/mEXNG/+KTY+lN6DUeGIUk57p7Y9Sq+p2q6VespLat32IJVK72nbks3QuoqT1KVDoZo1UUSarnuDzmjoIY/PDRVq+MBRPMHjxykvNCCiRKZ3KlGO5VKyNDxs4nD78GHcTi15mbHJnQ+upv25bS442Zl24EBseDhiYA+3/HmkXZOJDfK45ZGe4xAdHWdRHbsKw7B538/oV+kx/pnUDTWLlkHXZb6IiohELJ7g1vHd2LNnj/FxNBgetapJ8x+dIjS6lq6Awrbx0nIdSWW5BO6fPIE7cQ4oXrl0kmtE05LWfFn+TYBCWX8uCV+bI19jKIdeqU9CNku/TmxExuvPSMDOvRg85dyXjtiIiHTXadTjx4iW4nZed7PpaWxhZ5v4uj8Nw63d+OdcJOxLvolanhlP3yaDdS6e3MS5q6FwKFwFlbxSTW4JnmbdZfw6JaWVQhpcm2HmkYu4cMkXd4NCcG//VLQolMb3Az1cj75VyuOdz37FhfhiqNe9PzqUd1R7Ws7q7UFaIF2uPHBWZ1Nn5wA7rQYOLi7SWGUa2Dk6SOPKxB8PRDkMAyXlePaVOuHdyg4I2zMBn//iK+2gkhJp7UWTcSnujXzaSFw7fgGP1TJIbZfO3EaMrRfK+uSxqI68E3Ot9j/M238bgb6r0bPQXaybNBeX3YvAVWNAgbZzsPvQIRwyPQ4fwJoB5c12qEa2Fd/Fe9VzIXz/dxi33h/KgR+VCNyGqdN3IzRPbXRtW0raYSZKe3FTn68jenvYSxOPeRyMSHXYmIDbeJh8RWo0iH10C/cTvkcmGGePXEaEJj9Kl3IzFmVQx7L1ZyJf+ae2JmNaxjxFiqa7TvN4eMAJkbhx9joSbi0JvYqzt6LlsasFFoo4izkDRmN7SH688+n/8JoU2DKavnwcLtV1rq4fYd8YE+b3gdfF79G564+4kPgtUAlMy2rxurPkdUqN0MKlaDmUL+uDQm4O6e5c7v69EOtvFsIHqw5i8+JpGNnnNdiFpn4EML2337PaHojIegyURPbVMPTHz1DN8SE29quKCs0+wdRFK7By2RyM+7A5Gn+6xXincgac6vRGr+oOuLmsH3pM2IB//zuGzVP64pPV9+Da4CO8X9nOojr31n2D0csP4srdhwiONMBGq4HW1hZONbqifRkNzs7qjf7zduPiDT9cPLwWYwZ8h6OpBAkpUWLQzM9R0/E2VnStitd7jcP85csxb/z/UK9KW/x01QlvjfoBH5aVD7lq4OiSB3YIxMktu3B07184oNxBmyit+dK6lEHlovYIP/Qjxi8+iDPH1uKbL5YjxbfFSMnAcG81Ph80F7v/O4ltMz7EoBV3YF+lK7rXkE85ZlzHkvWXtpTLeNqzc7rr1LVWWzQqJHDt54/w8by9OH16O374eCx2RegyPmalDcXRnydg/JiRGPz+2yhXrDqGbItB9S9W45eeRZQ46lyrS7rTT3OdG6cg0aBgmx+xeszriN0xDG0HbsB95WVLuaynvHpatu4seZ2spJyyFo9wcudh+N45j/XjxmDNHfM/eTLeHmXWbQ9E9Ezxphwio5CT80XfmgWFvVbJCspD61BQ1By2XYTINxWUtBVONSepNxVIwraKfsVsRe56P4gr6h0Tcff+Fl+86SHsNeo4tE6iROup4rB6Q4csozr3fm0v3HUaodHphE6rFU7FmovJR0OVfpHn5onOpZzli5+FRiPV0ToKr8ZTxUn5xoc0hJ1ZIj6s4ykcEpZLK7RSu63XO2LivgARp9Yz+P8ueno7CCnoCI1zEzFfuQs5UdrzZRAP/xkkKjlrpXFrpHVWTLSb8JV4J4+N8Oq+Luld3rUGiNHdyih3zsrz4Vymm1h8SZ15S+pIMlzH0niGlLQTzrUni3Om10qV2jKmv04NImD7MFErr42ybBqbvKLWx9PFsLdchF3x/mnelLO0TX5ho5XWk7SubGztRS63IqJKi8Fi0ZEHIvkN+elNP811brY9KjexxN0Wq7sVF7bS/L05/qiQb9FKbVktWXeWvAZJqcvr1tLsLu9kkr9/QvaKr2q6Cp08b9pcosz748Vn9VyFQ4WvxJFo4yCpzf/dJc2Fq6aA6LT6obGSJNPbg1T+aSl74VwnsVx/bqKobm8nSn8qf6uC0e3FzaRpuovOa9P8DgiiV05mbsrhTy8SJSEQG/4IDwPDEWfnCnf3vHBSrpcTiI+NRZzGBna2xhsC5LI4qSxeYwt7W/OD/QZEP36AByFxcMznCfc8tmp9c+nXiYsKRsCjMBhy5YN7vtywMx+90CM8wB+PonTI4+6BfE42qYw/OQF9eCAeBEYATnlhd2MJ+nf+ChvvuaDel8uxalwzFJIPVMZFIejhI0TnKgjPVE5bpjdfIvox7j0Ih10BL7g7ArH6ePmiNNjZSHP3ZD+GVGyIhXkn4PiRr1Ay/AECY3OjoHtuJFyOaEmdBOmtP+m10kuvC2xhK70uKQZNbRkzWqf6MDzwfwy4ecFDmpZBHwO9kLYFO9O2kJSIi0VsvPzBKtGabzNpSGf6qa/zVLZHgx4x8jqXymztjNc8pv56prPunuo1SGSQllcfr4GNnS10qdZLbX5jEBrwAKE27iic30Fax3rEQSe9ZmbrKvn8x0vLGGeQVqk9pGpmMrM9pFJuiDNutzbSdmtaENM05e8UNdveiV5lmfnpRQZKohzKEHQcf/xxHIFyBnGqhLY968FL+WTIAkmCykhUTO1eDUvqUNbia0BEEv6WNxFZTJuvJjr3H4iBAwdiQK8sDJNERPTKUwOlfFxSpbQkdBERWc/ghnoff4uxvV5Dmrd1WFKHshZfAyKSGFOg9KzGwYRu+VktM0rMj+opb+NpbvPT3j7e3jzlTURERJTDNGzUCH5+fhmf7jae71baecqbiIiIiKzCQElEREREVmGgJCIiIiKrMFASERERkVUYKImIiIjIKgyURERERGQVBkoiIiIisgoDJRERERFZhYGSiIiIiKzCQElEREREVmGgJCIiIiKr8Le86ZUzatQotY2I6MWZNGmS2kaUvWTmt7wZKOmVIwdKfpAT0YvEzyHKzjITKLVSdlTJMVIltSS0ExEREVHOogbBJHkweYdZN6+hJCIiIiKrMFASERERkVUYKImIiIjIKgyURERERGQVBkoiIiIisgoDJRERERFZhYGSiIiIiKzCQElEREREVmGgJCIiIiKrMFASERERkVUYKImIiIjIKgyURERERGQVBkoiIiIisopWyM/yk9KS0CAiIiKiHMyYCaVnkTwdymWm/jLBI5REREREZB1NCW8fISdPIT+kArkpd3v7eGPP7t3GWkTZyKhRozBp0iS1K/Pqf6i2PCP7FqotRPTKe1afQ0QvQsNGjeB33U9KiRr5P6RnaLTKc5IyY7uxm0coiYiIiMgqDJREREREZBUGSiIiIiKyCgMlURaxtQFcnNWObCA2LAABoTFmd+0RERFZhoGSKAvopHfWwlHA7C/UgozE38TmaSPxzbJTiFKLjOJx7c9JGDHtH9xJkvRicH7VOIycvB6+Eacx8fVCqDvppFSaWeE4MKo+6g7biVC1hIiIyFIMlETPmBwmf/5aufkNfcerhRnReaBA8EbMmLUJV2LVMpm4hR1zpmLKd0tw+JFaJjPcws55P2BdQD54OhfGW136oNObRWCv9s4U5ZsepJkmIiJ6SgyURM+QHCYXjTaGyQ8mAHHxao8MOaBC0wYoeHUX9t8yqGWS+wew5V5p1MpzEttPmh07vH8EO8/nRt23K8MJBfDWpxPxWX13tScREdHzxUBJ9IyYjkzqdE8bJo2cqzbHWy7nsf2Qv1oCPDr8D844v4Y3Ssbg8O7zeKKWB5/ciVM2r6NZTVfAcAXrxo/ElM23jNc/xvvhr8kjMOG3o/hv42T079AKrbsPx/IzYcqwRrG4t+8nDO3eGi3bfYDxv5/B47jkRycNCDn3B74d2BWtm7dC5wHf4s+L4cZpxEnTmDoKkzf6SbVUD/fgx9ET8PtlvVoQjbMrx+KbhUfwWOqKDz6L1RP6o3PrlmjX+yssORFsrEZERNkeAyVRBuQba+QbbNJjCpM2Upj83/inD5MKt9po9VYunNt1AoFKQShO7TgDt/od8O47ZRC4axeuKlktEuf3nQRqt8AbBeRuAb9/FmLrTXWiGj2ubFyEv9dOxdCVkagqBbjyj1ejX+Nu+OW2HAf1uLqgPao1+w6XPd9GpzZlcPeH/ph+xuzIKOJwY1lnVKw5GNvFa2jbtRXKh/2OvtVrYuBWae5sPOH+eCNmLtiHe+oQQUd/wdTJ32PxoftqsL2BrXMW4qRdEbgFbcHHbzTChItF0KxLJzT0DMDpK+YBl4iIsjMGSqIMfP2B8QYbOTSmxjxMytdMZipMKgrg9aZVEHFgC07LWSvqDP7ZE4Mab9dB9SaNUeLWTuyRQ6PeF/v2PkLpt+vCyzhgChpNFK49aYaFqyZiQJ8BmLpiLro6HMa6Pf5S8vsHE8YfQdWZO7Fp+mD06fsFFm7/GY1j7iI6Tr3zJ3ATRo/Yj9d+Ooxd84bjg14fYezKvVj3gcBvXy/AGb0jKjZrCOdTW3BUubYzBMe3XUXZpqXgu/Uo5CJx7yB23S6LlvUL4cmVHdgVUAdfTB+Fvj36YMjkJZjdvbg8IBERvQIYKIky8NVsKaBJTeV0drJ3jClMykcw5TCpj1N7ZJJX/RaoEnIQ285FIOr8FuyJrIMWNd1gX+ZtNPK8gp0H/RF3+4AULIuicYPiab6BhbBHqcb1UEIKuQrXkqhYWIPHQRGIOL8ThyNroXNLH5h6w7kC6tcuBAcb42nvyHNSHf2b6NayeGIduKB2u0Zwu3YIJwOkQV5riUb2x7DtVCgQfhKbDruiVb/myHdmO+SiwH934HKxFmhUVAPH0k1QP+9ufNXlEyw6eBdP1NxKRESvBmV/lPjZLrcZf9ObiIzkI479JqUMleZHJvuMsz5MyjRFG6F5WX/s33kKJ7btQ2iN5ng9v9TDoTyaNs6Py7sP4fSBXbjo3ghNStkaB0qVDvaO9omBU2MLB3tjNIwJDcGTXO5wd1I6VRrozNJybEQ4YmxyIVeySdi55IWziEaMvKwutdCmkR1O7jmPgP824Ui+VmjTrCUaOx7BjvMPcWbPJXi1ehs+8mTzt8D8o/sw8bVLmNK6LIpW+wC/+Zrfzk5ERC+TFFlQKkgzH0o9EvcgRJQmOSwqoVJKlYulEOmcK+lp7mcRJhU6HzRuWgy39m/A+p134NP0TXgqPXKjSuNqiD60Hqu3XETeJk1RwVHp8dQc3T2QJ+IGfB+ZnZsXQbh+NQAx8caPC+eiPigY6YtL/qYbbIxCblxDoFtJlHSTu/KidvMqCN69GX9uPA33tk1Q3FEKvm874eTeLdh5WIcGTcrAlEl1+Wvig9m74HvnEL72/AdfjftbvVaUiIiyOwZKIgspoXKi9KaR3jWrvwUc7J5xmFTYodzbDeF64yAO3vRAk/pFE74ZMm+t5qhpOIddp2NRrXFV5FHLn5ZDpbZoXfgU5o5bictRcoCMwtXfxmPhfwZo1YnZVuiMPrX8MGfY9zgUGCf98SkQfWM9xk7ci0Lv90VddeLu9VqjctA+rD2sQYNGJaGDMyo3rIjAnatwIL4Bmld0UOqFn/gTf54JhryqNE5e8CnsDBGrR6YvNyUiopcKAyXRU5DD4/8mALfuAz3HPOswaZSrcnM01pzBedemaFLS7PbygnXRsnwALjyujKa15PPg5rRK0DXR6mxTXO+p0dlAJwdGpzcxZvlYlDowCK8VyIt8BbzRYUMZ9GhXCA6mYWzK4eMVv+L9J7PRvERBeHp5olDVATjx1jz8+U0d5FKrwaMB2pXxxcn4xmhW2jivbjWbofyVAwh8qyWqqhU14fswsm4xFPQojKJFKqP/8fqYPq0DChp7ExFRNqcp4e0jJDD+Sob0T25KnT4+3tize7dajSj7GDVqFCZNmqR2ZV79D9WWZ2TfQrXFAoa4GMTBDnbqTTImIi4WsQYd7Ox0Zr9pI2DQ6xGvtYOtcpmk1B0ndWtspe7EWgZp2DipzM5UFh+FQP8AROfygFc+B2ik/npI/ZNM04Dox/fxIMQA54JeyJ/LeB2mOXmekg4nEK+PhUFrr86PkSH6MR4+DIPBuQAK5s2FZItG9Ep5Vp9DRC9Cw0aNcP26HzQajXKpl/SstMsd5mUJ3dIwPEJJ9BLS2tinCJMyjY0d7JOESZkGWltTmJRJ3VI98zApk8sSwqRMlwv5ixRHYSlMyh8E8rhTTlMLB7dCKF6iSKphUpZyOA10tknDpEzr4AbPYsVQKB/DJBHRq4aBkoiIiIiswkBJRERERFbhNZT0yuG1S0T0ovFziLIzXkNJRERERM8dAyURERERWYWBkoiIiIiswkBJRERERFZhoCQiIiIiq0iBUv4t3+Tku77VViIiIiLKYeQgmBgGjW1qWWJxAh6hJCIiIiKrMFASERERkVUYKImIiIjIKgyURERERGQVBkoiIiIisoqmhLe38lPeSX/LW8DH2wd79vC3vCn7eVa/oVujRg217dk4ceKE2kZErzr+ljdlZ8bf8r6u/m63/Fvdpt/tlhvGbrlpLJO7eISSiIiIiKzEQEmUAfnIojUPIiKiVx0DJRERERFZhYGSiIiIiKzCQEn00gjF4QUjMWLEdGy9l8rvWin0uPLHRIwY+R3+vmVQy4iIiF4sBkqil4YBQUeW47tpEzBpzWXEqaVJhO3HnK+/xfQfN+N6vHxfHRER0YvHQEn0EtFoHVGhQWXcWLAAhyPVQjN3N/6Ivx1roXJutYCIiOglkBAolRNsaZ1lI6LnxID4YvVQX/875m4JUMtUsWexbPZxlHq7Muxi1DJJXOBprJ08CF1aNUe79z/D7L33oVf7GQlEXd+CmZ/1QNsWrfDuh+Ow9ny42o+IiCgZUx5Uvqc8WTxUu41lxjb5mUcoiV4ywrEGenQvjAM/rcG1eLVQErpvLpY8aoGPWxdAbEJ5CLaP+Qgzz7nhra490MzjPKY0q4chO0PV/gIPN/VHtaq9sSa8Etr36Ig6Tpexn4GSiIieIQZKopeMsMuHeh9+hNcuzMeiY1Fq4R1smLMNBfoMQENX82snnfDGxF049NtEDOrRHR9NW4KJjcOxd/sFPJF7h+zAmE/XwXPcLuz9eTh6d+uDz39YhTldvZShiYiIngUGSqKXkKZIewzpZMD6BTsRKHXHnlmCH4+WRd/3q8Iu3uywJWzh6qzHtX2rMeubwejVoTfmno9BTGSUclNP1NnN2BnyBvq8VxH2xgGIiIieOQZKopeSK+r36wbXLbOw1i8Iu+evRlS7wehUQgedjU6tI4k6jklNKqHRkN9wVVcKTXoPRZ+6+WEj/8aqJCY0BFF2rnB1UDqJiIiyBAMl0UvKvkovDKrjh+U/fod5G+3RqV8j5FX7mYQfXIQFVxtg7u6/MHfMJ3i/bRU4hYYiThgvl3YqVAz5I3xxyT/pbTpERETPEgMl0ctKUxRtBzTBw5++x9HXPsb/qqd2mFEKjjEBuPNIvu1bD/8tM7HwWCTUPAm7Sl3Ru/o1/Pj5DBwI0Cv34sUGHMfOk0HGCkRERM8AAyXRy0RrAxuzd6Vbo0HoW6UYmg/sgOIJ9+JILWp77vpD8MXrFzC8emEUKuKNhrO0aNykKBxt1Aq2FTDkt+XoFvEjmnsXhKdXIRQq2w2/3ja/DpOIiMg6mhLe3kI+mqE+KUcw5HYfbx/s2bNbrUaUfYwaNQqTJk1SuzKvRo0aSvPEiRNKM7OeZjwiLhZ62MLOFAglIj4OBilo6kxFhjjE6g3Q2tlBqSbiEBl4H0HxrvD0yA0beRwaaRwJA8ji8STIHw8ibJHXwx0u9vxbkigrPavPIaIXoWHDRrjudx0a+Z98Tb70kJtKq3JQw6xbfpLKuFcheolobOyShEmZRmcWJmVSuLSzV8OkTGMDpwJFUFQKk7ZKpzSOJAPIdHDMVwQlinkwTBIR0TPHPQtRBuQjjNY8iIiIXnUMlERERERkFV5DSa8cXrtERC8aP4coO+M1lERERET03DFQEhEREZFVtFC/AFmmtMpPZmVERERElMOoWTDdSGiWGXmEkoiIiIiswkBJRERERFZhoCQiIiIiqzBQEhEREZFVGCiJiIiIyCoMlERERERkFQZKIiIiIrIKAyURERERWUVTooS3/Cveyu93J/yet/xb3j78LW/Knp7Vb+jW/1BteUb2LVRbiOiVx9/ypuxM+S3v69eNv9Od8Lvd6m93m/+Wt1TXVIdHKImIiIjIKgyURERERGQVBkoiIiIisgoDJVEWsbUBXJzVDiIioleYGiiV23IS2ojIOjrpnbVwFDD7C7XAIqE4vGAkxvxyAuFqSYKY05j4eiHUnXQSMWoRERFRVkqaCeUbt1PmRFM3j1ASPWNymPz5a+WmN/QdrxZaxIDgf1dhxeFHUlsy9oXxVpc+6PRmEdirRURERC8LBkqiZ0gOk4tGG8PkBxOAuHi1h9UK4K1PJ+Kz+u5qNxER0cuDgZLoGTEdmdTpnnWYlBiuYN34kZiy+Zbx9EK8H/6aPAITfjuK/zZORv8OrdC6+3AsPxOmVEfoYSwYPQa/nDA7eR5+DIu//gaLjvrh0PxvMGr6FtxJOBT6CHvnjMbX8w8hWC0hIiKyFAMlUQbkG2vkG2zSYwqTNlKY/N/4ZxwmFQJ+/yzE1pvqiDV6XNm4CH+vnYqhKyNRtXVLlH+8Gv0ad8Mvt+XIGYzDS5bi31D5a2dNQnB06c84GJgXtRsVxLEpAzF2a5Cxz67xGDD5PxR/pw7yKiVERESWY6AkysDXHxhvsJFDY2rMw6R8zeSzD5Op02iicO1JMyxcNRED+gzA1BVz0dXhMNbt8VdrpM2mdD/MHFUM/3w9C8eDj+OHr/6Cz7gf0dtbWggiIqKnxEBJlIGvZkvhTWoqp7OTvWNMYVI+gimHSX2c2uM5EMIepRrXQwlTBnQtiYqFNXgcFJHypp4U7FBhwEwMtl+KT7oNxuqCozGrtzcYJ4mIKDMYKIkyIB9x7DcpZag0PzLZZ9zzDZNGOtg72ie+iTW2cLB/ikjoUBGdepWH747beK1nS3hncFqfiIgoLQyURBaQw6ISKqVUuVgKkc65kp7mfv5hMgNaezjYPEFQ0BO1QBLxAA8i1HaJ/sp8DJwUgX5TmuD455/h9/vJv12MiIjIMgyURBZSQuVE6U0jvWtWfws42GVNmNTEP0FwwAP4+/srjwePIqBX+1nM2QfVyhpwZM1m+MrfhB7/CLtnL8GxaGNvxJzH7IHTENZnBkYP+xaT3jyJ0V+uAzMlERFlBgMl0VOQw+P/JgC37gM9xzz7MClgwN1VPVGlZGmULVtWeZRr+T0uKNPRKmHWRKuzTXFNp0ZnA518bl7jjffGDYbPwYGolD8fCnjWxKTYBmjsqZPGEo1T3w/AlIcdMOXz2nDSFMK7E4bBe9tQDP3dP8WvIBAREWVEU6KEtxDSLkTIz9KeRG7KLT4+PtizZ7dajSj7GDVqFCZNmqR2ZV79D9WWZ2TfQrUlHSIuFrHxySKd1gZ2tloIvR7xWjvYKpdJStEzTurW2ErdiV8NZJCGj5PK7Exl+nA88A+CwdULXi42iIvVQ9jYQRcv17ODnY35sDGIQ9IyIsqcZ/U5RPQiNGzYCNevX1eu89IkPKRO+W4C8zK5strOI5RELxGNFPbs7e2TPqQEKb9ttbamMCmTuqW65mFSJpclhEmZbW54FCsuhUk7qUMLGzt72GrlcdmnCI5am5RlRERElmCgJCIiIiKraJWTawln2JKdaiMiIiKiHMY8D8rt0iNFRExaoClewlu5eNL8OkpeQ0nZGa9dIqIXjZ9DlJ01bNgQ16/7qddHyg35wivjtZLGMrVc+mfq5ilvIiIiIrIKAyURERERWYWBkoiIiIiswkBJRERERFZhoCQiIiIiqzBQEhEREZFVGCiJiIiIyCoMlERERERkFQZKIiIiIrIKAyURERERWYWBkoiIiIiswkBJRERERFZJJ1AKtUlEREREOU/SLJikK1lM5BFKIiIiIrIKAyURERERWYWBkoiIiIisoilewltASP/lf3JTPicuPfn4eGPPnj3GWkTZyKhRo9Q2IqIXZ9KkSWobUfbSsGFDXL/uJ6VE6b9GY3wYO8y6jf0SyhgoiYiIiMgkM4GSp7yJiIiIyCoMlERERERkFQZKIiIiIrIKAyURERERWYWBkoiIiIiswkBJRERERFZhoCQiIiIiqzBQEhEREZFVlEApf5e58qS2JLQSERERUY5izIFmSVBqTewy9k1K8AglEREREVmHgZKIiIiIrMJASURERERWYaAkIiIiIqswUBJlY+LJYzx8FIoYg1rwgpjmI/oFz0d2Ycnr9kxe29hwPAp4hPBYtft5yMw0s2g+X+n1TPSSYaCkHOXhnh8xetRs7HmkFlhCROHmvqUYN6Ar2jZvihbt38eQb1fg0L1otcKLE7rrU1SrMRwHotSCF8Q4H1/iYKRaQOmy5HUL3Wlcp/utWKfi7lJ0KtMa8/yeX9LPzDSTD/Pwj24oXrQr1jxUOjPtVV7PRC8bBkrKOcRdbJ8zE/PnTMasbf5qYfpE8AGMb1ISFTt9hyOxxVCzfgPULKHB5TWjMHTBObwMBySSfLXD8xDjh3+mfoyxm5OmcqvmIo1xvsosed2EeM6v7UsiT4VW6N23LSrlUQuswPVM9HwwUFKOYbi+Eb8c8kDr9gXx76+bcCOjgwkx5zCraxcs1A3GzmvnsXXxVIz+agTGfb8c2874Yttn5WCrVs1R4m7jnwXrcFX/DD8+smKcZFGYetYyM83kwziW64axY99DeUe14CX3ItYz0cuGn96UQ+hxcd0KXCz3HoYNbg+v48vwx+U4tV/q/Nd9g29P18TkJcNRx1WjlprYwtXNGXJp0P65GPX1Iuy/vA+zP3kffabuwWO5SvQd7FnwJXq1b4kWbXviy4UH4J9wSFPg5qYpGPndFtxN2BcJ3NkyDSOnbMJNKewGHTCO98idC/h9/Ado36I1ug+Tuh/Fq/UTibCL+GNCP3Ro2QY9vvwZ/wYmq5POvERfWIOJI7/GoqOhxgJJ1OnlGDtyEtZeilFLjKLP/YZxE9bisj4et/+ejhEjxmLl2SdqXym0B5/EL1/1QOvm7dFvyt+4YboqQEThxq55+Kp3e7Ro1Rn9xq3BpQjjgmc0ziTiHuH4ijHo16kVWrbtgaFz9uKe/DKmM36ZaV0e8j2GxcN7oE2LDvho+nbcSe8Qc9R1/D1tADq1aIGO/b/FhquJ500zHF8G82OS4euWXDrzJEscX2u8N3Q+9mV0WcYzWG9PPU1JRsMo76nRC3EkTC1ANO7snovP32+Hlq264OOpm+ErD5Jd1jNRDsBASTlD9GmsWnkdVbq1QfnK76Jb+atYtfaMtJtKyyMc2XwC9k17o3nh5GEyKV3YMSxdsQ6zBn6JnXEF4aKVEk7YAYxqUA1dFt5F0UYd0eEtN5yd0gLV2szGRWVnLBB9dRMW/+MnRd1Esb5/Y+GGK5BjnC70GJatXIcZPf+HtTHV0a5Dbdjs/QqN6w3BdiWxGml1t7DovV747clraN2uNnS7vkSDuoMT62QwLw4VmqJOxDqMHvELLskzE++L5SNGYr3+TTQrZ28ch0rExyI6Og5Co4OIeyK1RyIqxrgD1+r8MLfXMBxyq4+2jdxwanJ7NB22C3ImMFyZjw8G/4mwcq3Q490aiP9rEBp0WgBfKTinN84knpzBDy2rotmkM8jXqAu6NCuJ4CPHcF8aR3rjl8nrcunKNZj6wVf4N38DtKmfB/+Ob4Pmow8iwlglKWmdjWz4BgZu06Fux46oE78BH7zRGrOML16G48tofmQZvm7JZTBPCNmFz+u9gUFbBGq0bo96jtvw2RcbEJrOp7zV6y0T07RkGF3ov/jl15OIVN56elya3QrVu/+O+Fod0KVVZejPnoK/lAmzy3omyhGKl/AWxYqXEMWKFRdFixYTRYoWFYWLFBX1GzQQRK+K8D0fi5L5W4lld+WueOE7p6FwLT1E7ItQeqcUf0VMfz23qDT6hIhRi4T+utj8/Xgxbtw45TFhzi7hbxDi8aaewlNbSHT746FaMVac/baWcKk4TBwIU4skcdfmisYuBUXXPwKkrnhxafobwr3BHOEnjcPIIHx/fEvkq/2duBwvRIg8Xo2XVP++1EcV8Kfo5uUimsy/oZQlTHvdg1Tq+ElllsyLJPBv0beEp2i/9Kq4uqyTKFFpqNgbauyVQsQeMaiEh3jvz0C1QJ0PXUnx0fbHaoleXJxeV+QpPVQcjJKWLPie8H+i9pJE7B8iSrk2E4uV10MuSDnOpOLE1R8bCFfv/4nNjxKWNEFG41fmz6aUGLgzxFggzd+FaW+I3GWGicNmwxlJ62xybZGvxhhxLFItMtwVK9oVEmU/2yfkTSaj8Vk0P+m+blKdv6Q6RfqJ7crrltE8xYpzUn/nUp+I3QmvW7y4/Ws74W5fW0y9JG1QqbBuvWVmmpYN8/iv94Vn0Q/FDmXZ74pfWriLCsMPC2lTSiK7rGei7EbOgIWLFFEyYdFixZSMKGdFOTOW8PYW3j4+wsenpChZspQoWaq0KFW6tODfVJQDBGP/b1sR26g7GuaNQFhYBPI16oTaj9Zj+YEQtU4yGg100rsjTh9ndnVUDB5cOolTp07h+OaF+H6DL/Smg5dutdG6nrva4Y9Du66jWPuuqJVbLZLofJqjY3U9zvx7LZ0jo4mU6eZ/Ex3reyin1hUFXkfL2o7wO3sdCTel5quL9m8VTFqnlgP8zvlJdSycl3wt8O2MJrj4w+cYOt0XbWZ9g/pPe0NEgdpoVsNV7bCBZxkfOEcEISRWWp1uXnANPoXNP0/Gl/27otOXm/EoPgqRqR2JTNU97N18HoU690Pj/CmPGFs0/vy10bSai9phA6+y0vyFB+Jx0rP60oq/h4Pbr6NwaYGtMyZgwgTpMXEJzutyI+jiNWlrUqUzPovmJ93XLZkM5+k+juy+hkJtuqBOwuumReE6b6FUOtchWrfeMjPNzAxTADWblMOdOb3QfcIGnA9OvFQlu6xnopyAgZJefQ93YulGP9zb0Bdl8xeEp6cnCtUYhr3hd7Fl+W4EqNWS0BRAmbJueHj6LO6b9k025fC/hRuwYcPvGNssn7SDMttp5cqHfKYdiuEJwiLi4eDkCJ1apNDkglteRxhiY5HBFVyJHFzgkuSsswZa+V0rzG4DSLWONHcGqc5TzEvBhr3RLG4n9ufqgB61TQHCchrbXMhlo3ZIdLZ26geMwL213VGxQntM2fsY+Wt2wKdfdkIps7oZio/E45A4OLvlTuVGKAvHb+sIR/P5s3eQ4lEqt1OIaERE6REV7I/79+8nPELdG+LdOgXkyRmlOT4L5ye9100tSZDRPMVFIjjEALeCeWGnDqLQ2SR93ZOwcr1Jr8lTTzMzw0g1K3y2Bf+t6QXb9QNQp0gJvDPpEEKyzXomyhkSAmXSN1aKtxlRNiVw5++l2OXQF3/degB/f/+Ex8WlHRG/7RdsuZfa9u6KN7o0h8v+mZi5N+VRzJTHyMxo88HH2xkBl68bb84xibmPq37R8ChZGI7SGOzsbRH7OBChCQdcYhDoH4RY85FHPMQD84v8om7gzJUYeJUuCie1CJEP8dD8UMsTqc5VqU6pInCyaF5kwdgx9kvsrT0enzovxpAZJ5DGbTFPT/hh3dytyP/lP9i7Yhq+/KAz6hWIQYj5xaMZ0eVF8WK58OCynxQkknkW4zendUOxIrmgL9wB3/70E34ye8wd2wZF0n3xJZbOT3qvm1qUIKN5snGBl4ctHvreQrg6iCzy5hXcTetwuLXrTZeJaWZmGIUjSrQchTWnbuPqqha4/e0nmH32WvZYz0TZmbx7lB4p9pJqmbHc2MEjlPRqi/fFhuVHkbfNe6jnkQcuLi7qwxXeLfugpdN+LNtwHWbX8CdwaTIeP/aMw8IOb2PQ8pN4EBUHQ7weT4J84fcw8bRbSgXQ8P1m0Kz9EsNX+xqDmQjBiTnDMfdePfRr5yO98TQoUK483K78iV8PBiFeejdGXl6JmWtvwKAxSyxh+zFnxhbck3eS0jj+/XEkfvavhZ5tSia+eR/vxsxpW+GfUGeUVKcmerYtJdWxZF6AwL+/QP/fi+GLcUPxxcRuiPphAKadSCNS2rkgr3Ms7t9+BL0hBjEWBZB4hN7zR5j8uRNxHst//AtJcnyG4yyIRj3fAdZ8gS9WXYNyz62Igt/eg/BV6mYw/qdSEG+9WxdPVn2NidvuGb9rVMTgwcGfseyQeYxIjwXzk+7rllxG8+SJ+u1rInT1eEzfEwB564x7tB/ff78D4UkOpSVnzXrLzDQzMYy4iz1/7MO9aHnGbJHX2wcF7OKh18vv2uyynolefQyU9EqLPf87Vp52R6vOtWF2CaGRaz307FQY51avx8XUQpFGGm7eAWwdWRz7P6uLonld4eLqCjePqvhghzu6vlcHxisGjafQzOVtPgt//fAaDg96DYUKesGroA9aLHTAF38tQ3f1rvHcDYbj287RWNC0EPLm90DpLrtRtl0tOJmNSlP4HTSKGo/ahaVxuBdDkx8i8f6vv+B/3olvXV3x5mgs1anlmR/5XAujyawo9Px1KT5Q62Q0L+LBOgz9ZCvKjZ2GroW1cK4zHDN6xWLe4O9wPOm3pRjZlkeH9yvi7JfVkNetJr45aTw0ozEPwhJ5v66VyzQ+eG94D9itaAtvz8IoUqY7DldqicoOxnqKNMZpLn+rOdj4XSUcHCgth7sXCnmVQIPxRxBpyfil10iX7DUSqZSZeLw7D6s+c8LKjmXgUbAQihQuiip91yPIwXQ+NZ3xWTQ/Gb9uMq1yfYNR+vOkQdH352NRtyj81Lwo8uZzR6HqXyG4WSeUSetcrNXrLRPTtHgYjdn2FAe/Zd1Q3tMdXkWKoESj+XAavhDDqpfNHuuZKIfQyHfsSIy/FKBcl2Vs9/Hxwd49e9RqRNlUvB4xcQI2dnbQJd0vGin9IfW3Tb2/iSEaIQEBCI4SyJXPA+4u9ol/jRnkcWhhZ6eTdjdJCX0EHt1/hCi7fFKQywO7FNMw4EnQPTyIckRBr/xwFLGIhQ3sbbQI2dwL5Qc5YPmF+agX548H4XbI71kATubXiCVMW4vYEH/cD7NFfi93OCe/jkyS5ryo60gnrSMbs7JovUEqs4dt4r7WjAGxoQ8REO2MggVzw1aZDw1s7WySrZfEMkNMKB4+DINt/kLI7yANL41faytNM3GApONUS5MT0ngePHgMg7M7CubNlTDP6Y5fXU+20muU1vylJj7yEe4FhANO7vAs4Axb0/qxYHyWzE+6r1tCnaTbVZrzpBDSOrwP/xAN8np6II9tPGJjk6/npKxfb08/zQyHSb7sIg6RQQ8RGKWDq7s7XBwSR5xd1jNRdtKgYUNcv35dek+of9xJD7lpfCh/8pmVGbsZKIleUomBcgGaOKuFREREWSwzgZJ/SxERERGRVRgoiV5WBRrhsyGNUUDtJCIielkxUBK9pFxr98IXQzujCk93ExHRS46BkoiIiIiswkBJ9P/27j64jfSw7/hvQQKkRB5JSZTIk0SKFCWd3s+Nrn/YretT7Gac+JyksZ26tRM700ltT1q79STjupo0nrHpczxp7Uzu7Ilv6tQd38WOJ3/E7ttck+O5dT1Ocpr4dO8SIelOfBEpUhQpkiIJEuizzz4AXwRCul0J0BLfD7F4nn2eXewuQC1+egAQAAAgEgIlAAAAIiFQAgAAIBICJQAAACIhUAIAACASAiUAAAAiKQRKz5XK+VeFOQAAAFSjEnFwbRcjlAAAAIiEQAkAAIBICJQAAACIhEAJAACASAiUAAAAiIRACQAAgEgIlAAAAIjE6+remzMkM/mlnUxHT89ePdvXFywFAG/CQw895Gp3xnPPPedqAIC77eGTJ5VOp+V5nvwfUwnqdvL/BmVQD9qDeUYoAQAAEAkjlADuuPwIZdSRxTt1OwCA28cIJQAAAMqOQAkAt7So2aujGptedPPF3M4yALAxESgBbACT+vEf/3t99rOfXT195S814paIJNuvx99zVB/41hv2LUFFuWXe/19eX38ZANigTKAMTn2rT4CcDgHESVZX//opfevpl5Q+f17n3dQ/cE13brzwNs6L/vvRAaAKrDzb+XVGKAFsEJ42/cwn9MR3v6vvuul7//H92uV6AQB3D4ESwMa3dF7ff/Sz+vxTP9FP/+JRfexXHtF7P/QZ/dfnp9wC0uLY3+nPHv0t/dNHfl6//Gv/Vn/07LAyri8vO3tVZ595TJ/+Z7+oR973MT36g7RuuL7ilnTlr7+pf/fr79XPP/Jh/fYTP9Yob7EEsAERKAFsfF5Gr/3FE/rvf/b7+vSTM3rLe9+jwxPf0W++85/rT97wX6y5pqd/7+P66gtb9I8++GG9u/1Ffendb9en/nIyWN/J/M2X9NFHX9L9P/tL+rnui/r6+/6+3vvYqzcFz8CSLnzrV/UzP/dlndvzXn3wkd169dFf0Ds++b807pYAgI2CQAlgQ8gtLeiNb39Q3Vu3aquZWpp36T1PXCi8z8fzZnXuxrv1jT/9gj7xG5/Q73/7cX2w/sf6874h09ugt33hr/T/nvqCfuvDH9LHv/xNfeGd1/Xs0y8VRiA9b0YvDJzQ1//b1/U7v/kv9Mk/+L5+8Ln9+slXHtOPpt1CK439QL976id66zee0fc+/y/1kY9/Sd996mOq+e5/0p+/znstAWwsBEoAG4JXk9KeX31MT/+wT319ffrh//kf+vIv7JDn+nO5Ou1/59vVXeMaWvbp6G5PE+PTyiqplsaMzv3wO/rD//BJfeRXPqrHX5zX/Mxs4UM9uVxKB97zHh2tcw2q08F/fFKdV17US1duDojTZ57Wj3KHdP9r/1m9n/+8Pm+mr/zvWe1IntfLb8y5pQBgYyBQAtgwcqlW7T/2oB58MJiO7GpwPb4a1W2qWz7peUnV17l0Ofu36n3XMf3sp57S2Zr9etdHP63f+AetqvW/AqIgqfuaG8ytLPO8GnN7WWWLDDhmZqa1sDClkaEhDQ8P22loeEkP/JNHtK9mwS0FABsDgRJA1bv+oyf0x2cf1uPPfF+P/96/1q/90oNqmJzU4qo/A7Sg8cvj5jovpyuvvqjLTT3at3Vl8Aw07Nqj1vlanfg3f6Svfe1rhenrX/+q/tXbmt1SALAxECgBbBje0g1dHb2soaEhOw2PTOjGkussyQTH+VFdujJv6hkN/c+v6ht/M7Pqz0p63qJe+ZMv6IkzU8qa5efOf0+f++IPteMDv65/2OIWWiF15Jf1vv0v6vHf/abOTGVt29L1s/rBt57WgJ0DgI2DQAlgQ8iZmDf4nY/owX0HdPDgQTsdeOtv6xn3gZlETVI1a854Xk2tajzpvnd8Sr/z1pf0mRO7tatjr07+YULvfFenNtWuHHls1Nvef0h/9YEebd+6RduOfkz/98gX9Z3ek2pySyiRUCK/St0JfebJr+rtL39Wb+vYofbdu7Wz6x363N/Oq9YtAgAbhdfV3Z3z/xfurmzp//T09OjZvj63GADcvoceesiWzz33nC3DejO3k1tc0PxiMBKY5yVqlUzVmv85m7i5mNGSl1TST5BO1qyzaNpSfltuUTNjwxpfatH97fep1vRl8n3++plgvi43q5HhMWUa27Vra33hQz/5ZRYTKbeOk8toamRQY3MpbWlv15Z6/h8P4N728MmTSqfT8jzPnOPM+cwvC5OZXdXmr+ExQglgY/BqU6qvr1811dkwaXuVMP0rw6TPbyuEP69WDds71GnCZNLOrgyGZv1knepqza0lG9XW2aXdq8KkL1hmVZj0mRDa1N6lvV07CZMANixGKAHccfmRxTsl6kgnAOD2MUIJAACAsvO6urr9sUlGKAEAABCMUPa7EUo7JLk8GmlLRigBAABwpxEoAQAAEAmBEgAAAJEQKAEAABAJgRIAAACRECgBAAAQCYESAAAAkRAoAQAAEAmBEgAAAJEQKAEAABAJgRIAAACRECgBAAAQCYESAAAAkbhAmVtxbRQqAAAAqFY3RcK1DW6eEUoAAABEQqAEAABAJARKAAAAROJ1dXXncjI/OZnJXtmyZ1+Pnu3rc4sBwM1OnTrlaoiL3t5eVwOA4h4+eVLp/rQ8zzNJ0bNlMJlZ/2dlu7+CXxIoAYTlB0oCSnzweAG4HWECJS95AwAAIBICJQAAACIhUAIAACASAiUAAAAiIVACAAAgEgIlAAAAIiFQAgAAIBICJQAAACJZEShzrgQAAADy/Izof/nN+mmREUoAAABEQqAEAABAJARKAAAAREKgBAAAQCQESgAAAERCoAQAAEAkBEoAAABE4nV1dedyMj/+tf0zQ0G9Z1+Pnu3rC5YCgCJOnTql3t5eNxfe6dOnXe3OOHHihKthpTv1eAHY2B4+eVLp/rQ8zzNJ0fMvtu7/+DOJQrttCdrsmgAAAEBIBEoA9wx/ZDHKBACoDAIlAAAAIiFQAgAAIBICJYAqtKTpK4MaGp81tXtELqPrwxd06dqiawCA+CBQAqhKSzNXdXU64+bM/OyYBgfGNOf/tYtyymY0e3VI/S+/rHPDUyJOAogjAiUAGEszExq7nlG58+Ti5CWlB66rrm2ntqbsH+AAgHva8nlyuUagBFDlFnV9dFCjJkwqO6uxoUENjl53I4U5Lc6MafBiv871X9DA2LQW8+fP3LyuXR7U8NVpzVwd0sX+fp0fGNOsWSC3OKPxwQvqP5fW6yNTWiiRUmua9ujI8QfUsbVeiXKnWQC4QwiUAKqcCYDZrPt/dlDPZk1pfubHz+uVcyOaS7Voa3NKc5f79dol97K0Z/qvjWlyYlSXp2vU2NIgTQ6o/+KALp2/pMlEo1qaajU7nFZ6eFZZe/s382pqOBEDiD3OYwCqXFJN7R1quy9pzogN2r67Qx3tTUouTmpocEYNew6oZ2ertm3fpb3d2+VNjOjaglvVxMR5taizs02trferq3ObEpNjutG8R933b1drW6f2tNVrfqr0KCUAxB2BEgCKyN6Y0rTqlZwb0/DwsJ1GprKq9eZ1YyE/3uiprnGziaSBRF29UjUpNTbWB19HZq6TdSl5S4v3zqfJAeAuIFACQBH2ZfBcVplMZsWUU31Ls+rcC+R+YLTfdbtKQgnOrACqDKc9ACgikUyp1uTGhh0d6uzsXDF1aEdjjVsKAOAjUAKAkagxp8PFBWWyUi6Xk7epRVvq5jQ6NK4b7vXq3NKcJsenVHgLJQDAIlACqE6e/3K1qxu1TdvUkphQ+oXn9dKFCWW8zWrr3q3GG4N61bSdOXNGZ148q6EZEzbdOmtvI3gJ3FULTNvyGiXdvC4AxAOBEkAVqlFz5xEd7mg2Nae2RXsOH9exI4d1sGur/aBNor5V3UeO6/iRQ3rg4CEdPXZchzqb3Ydw6tV24Jj2t9bZOSu1TfuOH1T7puVkmNzSrWOHd6rhVmExcZ92HzmmrpZa1wAA8UGgBFCdbhpdNLyEapNJ1a46M3qqSaZUl0rKf1V8lZtuw59fMx5pl7lVmgzctC4AxASBEsA94/Tp05EmAEBlECgBAAAQidfV1Z2zXzLmX/t/Ws2WOfXs69GzfX3BUgBQxKlTp9Tb2+vmcK/j8QJwOx4+eVLp/nTwdh37tp38W3Ly8/nJzLo2RigBAACwmsmJy9yMDZBruhwCJQAAACIhUAIAACASAiUAAAAiIVACAAAgEgIlAAAAIiFQAgAAIBICJQAAACIhUAIAACASAiUAAAAiIVACAAAgEr7LG0Bod+q7oU+fPu1qd8aJEydcDSvxXd4Abof9Lu90Wqu/u9uv+i3BfNDufw1jUGeEEgAAAJEQKAHcM/yRxSgTAKAy1gRK/zVvAAAAVLVikdC02XdHBnOG50pGKAEAABARgRJAFVrS9JVBDY3PmlqFZed07fIbOt9/Tv3nL2l0aoHXigDEDoESQFVamrmqq9MZN2fmZ8c0ODCmuXKmudycRvrPanA6ocYtW9WUmtdI+hX1X5knVAKIFQIlABhLMxMau54pe5Db1HZAh/bt1o5t27Rj9171tKU0M3a1vMEWACIiUAKocou6PjqoURMmlZ3V2NCgBkevm1ZfToszYxq82K9z/Rc0MDatxXzQy83r2uVBDV+d1szVIV3s79f5gTHNmgVyizMaH7yg/nNpvT4ypYX1wqFXr6bm+hUn4oSSqVpz2/5fBwaA+CBQAqhyJrxlsy7ABfVs1g90Oc2Pn9cr50Y0l2rR1uaU5i7367VLU0HY9Ez/tTFNTozq8nSNGlsapMkB9V8c0KXzlzSZaFRLU61mh9NKD88qa2//VhY1Mz2v2s2blVr+8CQA3PMIlACqXFJN7R1quy9pzogN2r67Qx3tTUouTmpocEYNew6oZ2ertm3fpb3d2+VNjOjaglvVxMR5taizs02trferq3ObEpNjutG8R933b1drW6f2tNVrfqrEKGWBua3xN/TGZJ12tDer1rUCQBwQKAGgiOyNKU2rXsm5MQ0PD9tpZCqrWm9eNxby442e6ho3m0gaSNTVK1WTUmNjvfvrbJ6SdSl5S4ulP02ey2hy4KxeG86pff9e7ahneBJAvBAoAaAI+zJ4LqtMJrNiyqm+pVl17gVyPzDa77RdJaHEmzmzZmd1uf81DcxvUc/BHu3YXOM6ACA+CJQAUEQimVKtyY0NOzrU2dm5YurQjsY7Ffoymnj9gq6mduvA3jY18Do3gJgiUAKAkagxp8PFBWWy/oesc/I2tWhL3ZxGh8Z1w71enVua0+T4lApvoYxqfkJXpmq0pbXBviy+uLg8LfExbwAxQqAEUJ08/+VqVzdqm7apJTGh9AvP66ULE8p4m9XWvVuNNwb1qmk7c+aMzrx4VkMzJmy6ddbeRvASuKsWmLblNVbJ+gF2aVbDr70Q3H5+ev5lXZqq+Hf4AMBtI1ACqEI1au48osMdzabm1LZoz+HjOnbksA52bbUftEnUt6r7yHEdP3JIDxw8pKPHjutQZ7P7EE692g4c0/7WOjtnpbZp3/GDat+0HCCTW7p17PBONRTJlImGXTr8lrfoLWunv3dUe5p5LyWA+FgTKN0Zr/h/pgFg47hpdNHwEqpNJlW76szoqSaZUl0qKf9V8VWKjlCuGY+0y6x3UjV9Cf9DPDdPnIYB3DvWew/OcjsjlADuGadPn440AQAqg0AJAACASLyurm77rbH+pxrNxf94oz+nnp4ePdvXFywFAEWcOnVKvb29bg73Oh4vALfj4ZMnle5PB2/XsW/b8Qv/7Tz5+fxk37hj2xihBAAAQCQESgAAAERCoAQAAEAkBEoAAABEQqAEAABAJARKAAAAREKgBAAAQCQESgAAAERCoAQAAEAkBEoAAABEQqAEAADAap4rS1peiO/yBhDanfpu6NOnT7vanXHixAlXw0p8lzeA22G/yzudLnxPt/3Obr8szK+Y/BVMyQglAAAAIiFQArhn+COLUSYAQGUQKAEAABAJgRIAAACRECgBVKElTV8Z1ND4rKlVVnZ+SqMDF3W+v1/pi8OamKv0HgHAm0egBFCVlmau6up0xs2Z+dkxDQ6Mac7/axdlk9HE0LCmtUlNW1q0Wdf0+itnNTSTdf0AEA8ESgAwlmYmNHY9o7LmSSW1tesB7d3dptZtrbq/a692NS7o6tUZESkBxAmBEkCVW9T10UGNmjCp7KzGhgY1OHrdtPpyWpwZ0+DFfp3rv6CBsWkt5hNnbl7XLg9q+Oq0Zq4O6WJ/v84PjGnWLJBbnNH44AX1n0vr9ZEpLZRIqd7y3wU2EkqYhpqamuBvuwFATBAoAVQ5EwCzWTcyGdSz2eALHubHz+uVcyOaS7Voa3NKc5f79dqlqSBseqb/2pgmJ0Z1ebpGjS0N0uSA+i8O6NL5S5pMNKqlqVazw2mlh2dvMeJotpZb1A0TTEdubFbr1k0ESgCxQqAEUOWSamrvUNt9SXNGbND23R3qaG9ScnFSQ4MzathzQD07W7Vt+y7t7d4ub2JE1xbcqiYmzqtFnZ1tam29X12d25SYHNON5j3qvn+7Wts6taetXvNTJUYpF8Z07vmf6qd/d0bpa/Xatb9brfXESQDxQqAEgCKyN6Y0rXol58Y0PDxsp5GprGq9ed1YyI83eqpr3GwiaSBRV69UTUqNjfVuhNFTsi4lb2lx/U+TJ7dq75FjOnr0sLqaF3T57IvqH51zI6YAEA8ESgAowr4Mnssqk8msmHKqb2lWXSHuBd9lu1pCiTdzZvUSqqmtVTJVr8ZtHereuVkzo1fEB70BxAmBEgCKSCRTqjW5sWFHhzo7O1dMHdrRWOOWuvMS/gdysktaYogSQIwQKAHASNSY0+HigjJZKZfLydvUoi11cxodGtcN93p1bmlOk+NTKryFMqLc3DVduTZfCI/ZzJRGRq6rpnmLGu5eZgWA25Z/+05xy//zJVACqE6e/3K1qxu1TdvUkphQ+oXn9dKFCWW8zWrr3q3GG4N61bSdOXNGZ170/+i4CZtunbW34Z90b3oF3G9b52TseRlNXnpZZ543t33meT3/4nlN1u1UT0ezat0yABAHBEoAVahGzZ1HdNgEt8JAYG2L9hw+rmNHDutg11b7QZtEfau6jxzX8SOH9MDBQzp67LgOdTa7D+HUq+3AMe1vrbNzVmqb9h0/qPZNywEyuaVbxw7vVEOxTFm3XfuOvkXHjx7UAw8c0rEHH9Th7u3axJkZQMxw2gJQnW4aXTS8hGqTSdWuOjN6qkmmVJdKyn9VfJWiI5RrxiPtMsXSpGP6amrN7delzHZLLAcA9zACJYB7xunTpyNNAIDKIFACAAAgEq+rqztnv2TMv/Y/rBPMqaenR8/29QVLAUARp06dUm9vr5vDvY7HC8DtePjkSaXTafuBQvuWHfvWHfumnsLbeIJpuY0RSgAAAERCoAQAAEAkBEoAAABEQqAEAABAJARKAAAAREKgBAAAQCQESgAAAESS8P98kP9XhAAAAIDiimXF5TZGKAEAABAJgRIAAACRECgBAAAQCYESAAAAkRAoAQAAEAmBEgAAAJEQKAEAABAJgRIAAACReF3d3blcTsrlsmYyLebK/+np6dGzfX3BUgBQxKlTp1wNcdHb2+tqAFDcwydPKp1Oy/N/PM+kxaAMvgvH1de2ESgBAACQFyZQ8pI3AAAAIiFQAgAAIBICJQAAACJZESjzr4PbGQAAAGA5GprKejGREUoAAABEQqAEAABAJARKAAAAREKgBAAAQCQESgAAAERCoAQAAEAkJlAW+wC4+xNCAAAAqE5+GFwbCM18sYxoAqX/Bd6us9gSAAAAqBp+HCw+tLh+UFw9QhlkS9uyuLSkK1euBA0AAADY8Pzst7i45OZu3/J7KIM4mr/S/Ny8zp47Z+sAAADY+PzsNzc/5+bcoKMpXC2wcsb12UC5pt2aX5jXubNn3RwAAAA2Oj/7Lcwv2HqQCV0yLITF5dS4sj8YoVy7kCmmr0/rySef0sDAQNAGAACADcvPfH72m56eXpENfcHMclPwDkv3Tkkr4dle/8ot5opMJqPLly/rsccfDxoAAACwYfmZz89+fga0TCZ0sdAIZgrzyx22XrNly5bPuVkth8uA/xr6+Ni40um0Dh48qKamJtcDAACAjcAfmfziFx/VM33PaHx83LZ5fig0ky38bHhT3daW27v37s3l/DFLc2V/1taN5uYmtbe368Mf+pD279+vAwcOaPv27UEnAAAAYsX/NPfZs2d17tw5ffvJJ+3I5NTkVNC5NjgGyTEIjnbGtdtm1969t8cmx3yAdOkyCJMr2pPJWt3XeJ9SdSnV19WrpiZheuyiJZTsLCn0muE3GUH5Nxqvw6zI3pZdlfzqGdXxeFaGPT1vfBU4zCq5Z42QR1o1j0n5t2rzV9mV2Kjp8nv9Pw00Pz+n+YUF+57JTGYxCIZ2ARcSC/Vg3rb4dVsN2uycX7eB0jxBrA6QtsmW/k9wWdEeXBXK9dj+sEKuWoltRhF6f0Pva/iDrMDdE6/HJG6q5DBxC/aZAetxT53lFWGT4VeNz3FW4jEJRuXKLMImS95HpqsQAgv1oLTHWWhb2b+2bkr/pvx6UJG31wRK/wnUz4rLgdLv9UtTsZfV9ZvKddh1yi3CJksdS0kVOcwq2NcoKrDJKCpyHwEV4p6CNr6Qhxnt3qnIRkOpyO9B6Lsnwr7eY9u0t2svK0tzvbLNBkXX7q9jO4O6LVfW8+XeHhMo/ecyc2Wf1PzLTfU1/f5P0Ggv63FrhhNy1WrZZliR9jWsCmwyykZjtru4Syrxb8WdmrGeCtw90TYZcu0Y/RpU5Hc2wiZD7+9G2qbtMkuY0i5XKFe2BXU759dtdU3/mjYTKPeZ86Z/6rSFOYveXA8uy+Xa0cr12P5yi7DJ0PtbkcOsgn2NogKbjLLRiuxutYjTnWvP0BtfZQ6zAlutyCbLvNEImyv7vvpCbjLSvlZim6W4MBiMOrrtFAJiMH9T35q6nSuUrn85UJrzbpAigzBpS1OxF1e65YLl830lBDcUittSeYXcZKR9LfNhxmlfo6jI708UMdvd8KrmQMvMntk3vpgdpn0CLrcybzJuxxh6f2O2zVIr2x5zZfcrHwaDhlVtds6v2+qt2sy1DZT+0689z7vSBcdVAdO1BaWp2UtQrsetEU7IVSNtM6xIh1nm/a3I3ROvxySsihwn7p5KPJz25Iz1uKex+KjA7pb9PorbMYZctSK/e0FaC6XkmqbTHo9/sdtwR7cqIK5us3Mr2wp9K+o9+/a53Bg8HQYz+dK0FfpMxV6KlOsp0XUrJW+3lAjbDCv0vkaQf5zKqgKbDKsSj0mc7p9KqcjjUgXcKR2lVOAuqsjjEqNfhSDMlFfoxyTSroZb+W5t0t4H9rKydPeMDYnLbUHT6j7bW6ytZ99+k02Ck/zthMhgUTfv1luPXS+skKtWYptRRNrfMCLdPRW4g8KqhscyqpjtLu6S4DkjFtxTWHxUYHfLfh9VwzH6gtQUSug1IxxmyfvIdNl+u4iprZgPSrf2yrDojr94uHSlHyiD8Gi4Mh8sg4vtLvQVyhXtd0N+K29ahN0Jvc0oyrzJuB1jRfY3rBjtajWJ0++QO1XjbojRXRvp96DMx1mR39mKbLL8j8ldu2/NzQbB0N3+mpBo5wrl6j7X6ubz9eDK2+ePUJrqqtHJtaW5CmbXKddVurekkKveao9KirBqWKH3N077WgncP4iqEg+nPTHjbnBPfeUVo8czTvdP3B7L0Psb6TDXX9n2rAyKa8ugYkvbGjSYIr/McnswH5SFQGmfDv1KISSumS9Rrmf9nttQ4nbvFndE5RVyk+H3NMIxVuDuCasij2UlVM1hVsmBVoB7SiivCmyyEqrjvg2/wdBrRjjGOD0md21f1wTB2yrN5Kr+ddHS27f/gDlXL4dDW7MX2xxw/WtfCneXEkr3llLY9psWfptRVg0ruGfLqCJ3T7wek0oo++8BEEPu6S0+KrC7Zb+P4naMcdrfSPu6/sq2x1zZ/TJJMJhfLvPFev3FS3NZFSj9pzVbWVuamq0stweXoFxPia7bEHLtCBu1x1NuZd5k3I4x/KoVOM4oYra7QEXYZ674cE+1b16MjjP0MUYRaZPhVq7AJs1qd+m+NTdrb9vevKkV5m2DK9zW/cC4tn1taQtT7jeB0j6XmevbKs21qdoyuAStRZXoupXwq5Z/oxG2aFRko6GUfKzvNTHaVV/43Y3ZgYZVJYcZWnC+j5FwO1wlhxmJe3qPh9C7Gv4YXTYqq4o8JiU2affH9ptavrTF7ZdBkS/ttQmUB0yg9E/WpQJjcDFXxZdZT37psoqwyTjtb+g9DR642KjIY1IJVXKYlVANd21wWq8CMTtQ9/QbD6F3NfwxVmCTRriVK7BJI/xWS65pO81vZ760Rb4Mrvw+27I2NK4tbeGWKQRKXz4wrhMc1+1bT4muWwm9arBTsZG/N9+0Chxm6H2thHj9GsTrvgViyD31lVcFNhl2ozHaVbNa3B7LCjwmJVe+ORC6WXtVvO/mcrkI2kygfMA8k+XDoZEPjEWC403L+Nf5tiJKdN1aYWPlkz+qsgq5yfB7Gp9jjCLaJiuww2HFaFeBguC5KCbC72zoNWN0/7h4UV6RNhlu5Qps0gi/1ZJr2k7zyLnSXufb3MzaMijypb1es4z0/wEKVaJJjn8INAAAAABJRU5ErkJggg==;" vertex="1" parent="1">
          <mxGeometry x="1298" y="210" width="660" height="657" as="geometry" />
        </mxCell>
      </root>
    </mxGraphModel>
  </diagram>
</mxfile>
